<?xml version="1.0" encoding="UTF-8"?>
<svg width="51px" height="50px" viewBox="0 0 51 50" version="1.1" xmlns="http://www.w3.org/2000/svg" xmlns:xlink="http://www.w3.org/1999/xlink">
    <!-- Generator: Sketch 42 (36781) - http://www.bohemiancoding.com/sketch -->
    <title>Group 2</title>
    <desc>Created with Sketch.</desc>
    <defs></defs>
    <g id="Page-1" stroke="none" stroke-width="1" fill="none" fill-rule="evenodd">
        <g id="Tables-Copy" transform="translate(-1563.000000, -258.000000)">
            <g id="RightPopout" transform="translate(1546.000000, 72.000000)">
                <g id="survey-alert" transform="translate(0.000000, 186.000000)">
                    <g id="Group">
                        <g id="user-Notification" transform="translate(17.956044, 0.000000)">
                            <g id="Group-2">
                                <circle id="Oval-4" fill="#4A90E2" cx="25" cy="25" r="25"></circle>
                                <g id="user-icon" transform="translate(13.000000, 13.000000)">
                                    <g id="ic_new_releases" transform="translate(0.964286, 0.000000)">
                                        <g id="Icon-24px">
                                            <polygon id="Shape" points="0 0 23.9340659 0 23.9340659 24 0 24"></polygon>
                                            <path d="M22.9368132,12 L20.5035165,9.22 L20.8425824,5.54 L17.2425,4.72 L15.3576923,1.54 L11.967033,3 L8.57637363,1.54 L6.69156593,4.72 L3.09148352,5.53 L3.43054945,9.21 L0.997252747,12 L3.43054945,14.78 L3.09148352,18.47 L6.69156593,19.29 L8.57637363,22.47 L11.967033,21 L15.3576923,22.46 L17.2425,19.28 L20.8425824,18.46 L20.5035165,14.78 L22.9368132,12 L22.9368132,12 Z M12.9642857,17 L10.9697802,17 L10.9697802,15 L12.9642857,15 L12.9642857,17 L12.9642857,17 Z M12.9642857,13 L10.9697802,13 L10.9697802,7 L12.9642857,7 L12.9642857,13 L12.9642857,13 Z" id="Shape" fill="#FFFFFF"></path>
                                        </g>
                                    </g>
                                </g>
                            </g>
                        </g>
                    </g>
                </g>
            </g>
        </g>
    </g>
</svg>