<svg width="44" height="44" viewBox="0 0 44 44" fill="none" xmlns="http://www.w3.org/2000/svg">
<path d="M21.3333 0C9.55733 0 0 9.55733 0 21.3333C0 33.1093 9.55733 42.6667 21.3333 42.6667C33.1093 42.6667 42.6667 33.1093 42.6667 21.3333C42.6667 9.55733 33.1093 0 21.3333 0ZM12.8 33.0667C9.856 33.0667 7.46667 30.6773 7.46667 27.7333C7.46667 24.7893 9.856 22.4 12.8 22.4C15.744 22.4 18.1333 24.7893 18.1333 27.7333C18.1333 30.6773 15.744 33.0667 12.8 33.0667ZM16 12.8C16 9.856 18.3893 7.46667 21.3333 7.46667C24.2773 7.46667 26.6667 9.856 26.6667 12.8C26.6667 15.744 24.2773 18.1333 21.3333 18.1333C18.3893 18.1333 16 15.744 16 12.8ZM29.8667 33.0667C26.9227 33.0667 24.5333 30.6773 24.5333 27.7333C24.5333 24.7893 26.9227 22.4 29.8667 22.4C32.8107 22.4 35.2 24.7893 35.2 27.7333C35.2 30.6773 32.8107 33.0667 29.8667 33.0667Z" transform="translate(0.666687 0.666992)" fill="#2C98F0"/>
</svg>
