<?xml version="1.0" encoding="UTF-8"?>
<svg width="220px" height="110px" viewBox="0 0 261 122" version="1.1" xmlns="http://www.w3.org/2000/svg" xmlns:xlink="http://www.w3.org/1999/xlink">
    <!-- Generator: Sketch 47.1 (45422) - http://www.bohemiancoding.com/sketch -->
    <title>Group Copy</title>
    <desc>Created with Sketch.</desc>
    <defs></defs>
    <g id="Page-1" stroke="none" stroke-width="1" fill="none" fill-rule="evenodd">
        <g id="Desktop-T&amp;C-Owner" transform="translate(-584.000000, -185.000000)" fill="#6EA0EC">
            <g id="Background" transform="translate(-240.512369, -650.512369)">
                <g id="Group-Copy" transform="translate(825.000000, 836.000000)">
                    <path d="M28.7356452,55.7876913 C12.52931,57.8489367 0,71.6888441 0,88.4551286 C0,106.301163 14.1950508,120.831766 31.9100986,121.371883 L32.0346189,121.375448 C32.3328798,121.38343 32.6321296,121.387446 32.9323175,121.387446 C33.2325054,121.387446 33.5317552,121.38343 33.8300161,121.375448 L225.718844,121.375448 C226.017105,121.38343 226.316354,121.387446 226.616542,121.387446 C226.91673,121.387446 227.21598,121.38343 227.514241,121.375448 L228.146862,121.375448 L228.146862,121.35252 C245.624456,120.553083 259.54886,106.130215 259.54886,88.4551286 C259.54886,70.8570061 245.745457,56.4828411 228.374972,55.5689545 C224.798982,47.1911449 216.485672,41.3193013 206.800919,41.3193013 C202.417251,41.3193013 198.314564,42.5223207 194.804994,44.6162223 C189.218167,34.3844465 178.360296,27.4435979 165.881303,27.4435979 C157.826686,27.4435979 150.447446,30.3352317 144.725059,35.1370235 C140.536606,15.0721533 122.748427,0 101.439958,0 C82.0918268,0 65.6460606,12.4265 59.6483068,29.7338521 C57.209644,28.8745007 54.5861846,28.4070197 51.8535391,28.4070197 C38.904384,28.4070197 28.4070197,38.904384 28.4070197,51.8535391 C28.4070197,53.1941793 28.5195376,54.5085395 28.7356452,55.7876913 Z" id="Combined-Shape"></path>
                </g>
            </g>
        </g>
    </g>
</svg>
