<?xml version="1.0" encoding="UTF-8"?>
<svg width="375px" height="129px" viewBox="0 0 375 129" version="1.1" xmlns="http://www.w3.org/2000/svg" xmlns:xlink="http://www.w3.org/1999/xlink">
    <!-- Generator: Sketch 45 (43475) - http://www.bohemiancoding.com/sketch -->
    <title>clouds</title>
    <desc>Created with Sketch.</desc>
    <defs></defs>
    <g id="Page-1" stroke="none" stroke-width="1" fill="none" fill-rule="evenodd">
        <g id="iPhone-7-signup--step-1" transform="translate(0.000000, -68.000000)">
            <g id="ErrorBackground" transform="translate(-23.000000, -29.000000)">
                <g id="ErrorBackground-Copy" transform="translate(-474.600000, -515.302469)">
                    <g id="clouds" transform="translate(433.300000, 612.454733)">
                        <g id="Group" transform="translate(405.309627, 38.853278)" fill="#5291E6">
                            <path d="M39.5404312,16.8342103 C42.9488059,6.99954835 51.7154386,0 61.9925816,0 C72.3307232,0 81.1403705,7.08288473 84.5048548,17.0096261 C86.2149748,16.4202641 88.0369161,16.1022132 89.9274931,16.1022132 C99.7875721,16.1022132 107.780745,24.7532608 107.780745,35.4248689 C107.780745,35.9767501 107.759368,36.5232275 107.717461,37.0633839 C106.866605,52.9017001 93.7544333,65.4823335 77.7038976,65.4823335 L16.5307892,65.4823335 L16.5307892,65.4301252 C7.28826415,64.6976894 0,56.3498683 0,46.1596777 C0,35.4880696 7.99317332,26.8370219 17.8532523,26.8370219 C19.0561414,26.8370219 20.2312453,26.9657754 21.3674408,27.2112437 C25.176041,20.9576036 31.723432,16.8306336 39.1614276,16.8306336 C39.2880232,16.8306336 39.4143608,16.8318291 39.5404312,16.8342103 Z" id="Combined-Shape"></path>
                        </g>
                        <g id="Group-Copy-4" transform="translate(361.909627, 64.233319) scale(-1, 1) translate(-361.909627, -64.233319) translate(308.009627, 31.277146)" fill="#5291E6">
                            <path d="M39.5404312,16.8342103 C42.9488059,6.99954835 51.7154386,0 61.9925816,0 C72.3307232,0 81.1403705,7.08288473 84.5048548,17.0096261 C86.2149748,16.4202641 88.0369161,16.1022132 89.9274931,16.1022132 C99.7875721,16.1022132 107.780745,24.7532608 107.780745,35.4248689 C107.780745,35.9767501 107.759368,36.5232275 107.717461,37.0633839 C106.866605,52.9017001 93.7544333,65.4823335 77.7038976,65.4823335 L16.5307892,65.4823335 L16.5307892,65.4301252 C7.28826415,64.6976894 0,56.3498683 0,46.1596777 C0,35.4880696 7.99317332,26.8370219 17.8532523,26.8370219 C19.0561414,26.8370219 20.2312453,26.9657754 21.3674408,27.2112437 C25.176041,20.9576036 31.723432,16.8306336 39.1614276,16.8306336 C39.2880232,16.8306336 39.4143608,16.8318291 39.5404312,16.8342103 Z" id="Combined-Shape"></path>
                        </g>
                        <g id="Group-Copy-3" transform="translate(0.009627, 0.215006)" fill-opacity="0.475486866" fill="#E2E2E2">
                            <path d="M39.5404312,16.8342103 C42.9488059,6.99954835 51.7154386,0 61.9925816,0 C72.3307232,0 81.1403705,7.08288473 84.5048548,17.0096261 C86.2149748,16.4202641 88.0369161,16.1022132 89.9274931,16.1022132 C99.7875721,16.1022132 107.780745,24.7532608 107.780745,35.4248689 C107.780745,35.9767501 107.759368,36.5232275 107.717461,37.0633839 C106.866605,52.9017001 93.7544333,65.4823335 77.7038976,65.4823335 L16.5307892,65.4823335 L16.5307892,65.4301252 C7.28826415,64.6976894 0,56.3498683 0,46.1596777 C0,35.4880696 7.99317332,26.8370219 17.8532523,26.8370219 C19.0561414,26.8370219 20.2312453,26.9657754 21.3674408,27.2112437 C25.176041,20.9576036 31.723432,16.8306336 39.1614276,16.8306336 C39.2880232,16.8306336 39.4143608,16.8318291 39.5404312,16.8342103 Z" id="Combined-Shape"></path>
                        </g>
                        <g id="Group-Copy" transform="translate(41.309627, 12.336817)" fill="#6EA0EC">
                            <path d="M15.5781543,32.7327816 C6.7923836,33.9421935 0,42.0625988 0,51.900022 C0,62.3709761 7.69541422,70.896639 17.2990875,71.2135465 L17.3665924,71.2156379 C17.5282854,71.2203212 17.6905146,71.2226778 17.8532523,71.2226778 C18.01599,71.2226778 18.1782192,71.2203212 18.3399122,71.2156379 L122.366592,71.2156379 C122.528285,71.2203212 122.690515,71.2226778 122.853252,71.2226778 C123.01599,71.2226778 123.178219,71.2203212 123.339912,71.2156379 L123.682869,71.2156379 L123.682869,71.2021853 C133.157814,70.7331252 140.706505,62.2706744 140.706505,51.900022 C140.706505,41.5745275 133.22341,33.1406527 123.806531,32.6044404 C121.867917,27.6888576 117.36111,24.2436214 112.110816,24.2436214 C109.734344,24.2436214 107.510197,24.9494791 105.607591,26.1780516 C102.578863,20.1746757 96.6925988,16.1022132 89.9274931,16.1022132 C85.5609279,16.1022132 81.5604979,17.7988458 78.4582803,20.6162415 C76.1876382,8.84341137 66.5443189,0 54.9925816,0 C44.5035821,0 35.5880112,7.29110493 32.3365118,17.4459933 C31.014465,16.9417788 29.5922365,16.6674897 28.110816,16.6674897 C21.0908262,16.6674897 15.4,22.8266966 15.4,30.4244634 C15.4,31.2110685 15.4609982,31.9822541 15.5781543,32.7327816 Z" id="Combined-Shape"></path>
                        </g>
                        <g id="Group-Copy-2" transform="translate(322.009627, 57.035994)" fill="#6EA0EC">
                            <path d="M15.5781543,32.7327816 C6.7923836,33.9421935 0,42.0625988 0,51.900022 C0,62.3709761 7.69541422,70.896639 17.2990875,71.2135465 L17.3665924,71.2156379 C17.5282854,71.2203212 17.6905146,71.2226778 17.8532523,71.2226778 C18.01599,71.2226778 18.1782192,71.2203212 18.3399122,71.2156379 L122.366592,71.2156379 C122.528285,71.2203212 122.690515,71.2226778 122.853252,71.2226778 C123.01599,71.2226778 123.178219,71.2203212 123.339912,71.2156379 L123.682869,71.2156379 L123.682869,71.2021853 C133.157814,70.7331252 140.706505,62.2706744 140.706505,51.900022 C140.706505,41.5745275 133.22341,33.1406527 123.806531,32.6044404 C121.867917,27.6888576 117.36111,24.2436214 112.110816,24.2436214 C109.734344,24.2436214 107.510197,24.9494791 105.607591,26.1780516 C102.578863,20.1746757 96.6925988,16.1022132 89.9274931,16.1022132 C85.5609279,16.1022132 81.5604979,17.7988458 78.4582803,20.6162415 C76.1876382,8.84341137 66.5443189,0 54.9925816,0 C44.5035821,0 35.5880112,7.29110493 32.3365118,17.4459933 C31.014465,16.9417788 29.5922365,16.6674897 28.110816,16.6674897 C21.0908262,16.6674897 15.4,22.8266966 15.4,30.4244634 C15.4,31.2110685 15.4609982,31.9822541 15.5781543,32.7327816 Z" id="Combined-Shape"></path>
                        </g>
                    </g>
                </g>
            </g>
        </g>
    </g>
</svg>