<?xml version="1.0" encoding="UTF-8"?>
<svg width="180px" height="90px" viewBox="0 0 200 113" version="1.1" xmlns="http://www.w3.org/2000/svg" xmlns:xlink="http://www.w3.org/1999/xlink">
    <!-- Generator: Sketch 47.1 (45422) - http://www.bohemiancoding.com/sketch -->
    <title>Group Copy 3</title>
    <desc>Created with Sketch.</desc>
    <defs></defs>
    <g id="Page-1" stroke="none" stroke-width="1" fill="none" fill-rule="evenodd" fill-opacity="0.475486866">
        <g id="Desktop-T&amp;C-Owner" transform="translate(-557.000000, -155.000000)" fill="#EAEAEA">
            <g id="Background" transform="translate(-240.512369, -650.512369)">
                <g id="Group-Copy-3" transform="translate(798.000000, 806.000000)">
                    <path d="M72.9367407,28.6911677 C79.2238685,11.9295893 95.3949014,0 114.352239,0 C133.422096,0 149.672474,12.0716226 155.878641,28.9901353 C159.033148,27.9856638 162.393922,27.4435979 165.881303,27.4435979 C184.06932,27.4435979 198.81362,42.1878986 198.81362,60.3759154 C198.81362,60.9033502 198.801221,61.427889 198.776698,61.9492563 C198.591017,89.4045703 176.276915,111.603965 148.777866,111.603965 L30.4928865,111.603965 L30.4928865,111.514984 C13.4440171,110.266667 0,96.0391663 0,78.6716473 C0,60.4836306 14.7443008,45.7393298 32.9323175,45.7393298 C35.1511807,45.7393298 37.3187911,45.9587692 39.4146306,46.3771299 C46.440019,35.7188196 58.5174127,28.6850718 72.2376261,28.6850718 C72.4711458,28.6850718 72.7041896,28.6871094 72.9367407,28.6911677 Z" id="Combined-Shape"></path>
                </g>
            </g>
        </g>
    </g>
</svg>
