<?xml version="1.0" encoding="UTF-8"?>
<svg width="40px" height="40px" viewBox="0 0 40 40" version="1.1" xmlns="http://www.w3.org/2000/svg" xmlns:xlink="http://www.w3.org/1999/xlink">
    <!-- Generator: Sketch 43.2 (39069) - http://www.bohemiancoding.com/sketch -->
    <title>monetization_on</title>
    <desc>Created with Sketch.</desc>
    <defs></defs>
    <g id="Page-1" stroke="none" stroke-width="1" fill="none" fill-rule="evenodd">
        <g id="Dashboard-Desktop-No-Filtering-Copy" transform="translate(-902.000000, -484.000000)">
            <g id="Group-2" transform="translate(215.000000, 88.000000)">
                <g id="Errors" transform="translate(574.000000, 375.000000)">
                    <g id="monetization_on" transform="translate(113.000000, 21.000000)">
                        <path d="M20,0 C8.96,0 0,8.96 0,20 C0,31.04 8.96,40 20,40 C31.04,40 40,31.04 40,20 C40,8.96 31.04,0 20,0 Z M9.23012435,20.2867761 C9.23012435,22.9244383 10.3190784,25.2995278 12.0542251,27.0181855 L9.23012435,29.8348745 L16.4100414,29.8348745 L16.4100414,22.6738007 L13.7295391,25.3472683 C12.3829923,24.005372 11.6254997,22.1852926 11.62343,20.2867761 C11.6233177,17.2538989 13.5418989,14.5510153 16.4100414,13.5434317 L16.4100414,11.048991 C12.2815891,12.1112169 9.23012435,15.8349753 9.23012435,20.2867761 Z M18.8033471,26.2543376 L21.1966529,26.2543376 L21.1966529,23.867313 L18.8033471,23.867313 L18.8033471,26.2543376 Z M30.7698757,10.7386778 L23.5899586,10.7386778 L23.5899586,17.8997515 L26.2704609,15.226284 C27.6170077,16.5681803 28.3745003,18.3882597 28.37657,20.2867761 C28.3766823,23.3196534 26.4581011,26.022537 23.5899586,27.0301206 L23.5899586,29.5245613 C27.7184109,28.4623353 30.7698757,24.738577 30.7698757,20.2867761 C30.7698757,17.649114 29.6809216,15.2740245 27.9457749,13.5553668 L30.7698757,10.7386778 Z M18.8033471,21.4802884 L21.1966529,21.4802884 L21.1966529,14.3192147 L18.8033471,14.3192147 L18.8033471,21.4802884 Z" id="Shape" fill-opacity="0.54" fill="#000000"></path>
                        <g id="sync_problem" transform="translate(19.000000, 7.000000)"></g>
                    </g>
                </g>
            </g>
        </g>
    </g>
</svg>