<svg width="172" height="60" viewBox="0 0 172 60" fill="none" xmlns="http://www.w3.org/2000/svg">
<path d="M51.2978 8.7038C46.2544 3.64696 39.5691 0.559913 32.4491 0L16.8458 15.6033C13.4937 18.6926 11.3263 22.8561 10.7185 27.374C10.1107 31.8918 11.1006 36.4801 13.517 40.3455C15.9335 44.2109 19.6246 47.1105 23.9523 48.5429C28.28 49.9754 32.9721 49.8507 37.2176 48.1904C41.4631 46.53 44.995 43.4385 47.2027 39.4502C49.4104 35.4619 50.1551 30.8275 49.3082 26.3483C48.4612 21.8691 46.0758 17.8266 42.5643 14.9197C39.0528 12.0128 34.636 10.4243 30.0774 10.4287C29.6462 10.4287 29.2149 10.4287 28.7837 10.4287L34.1853 5.0271C39.7585 5.95723 44.8582 8.73152 48.6668 12.9053C52.4754 17.0791 54.7725 22.4107 55.19 28.0456C55.6074 33.6805 54.121 39.2924 50.9689 43.9818C47.8168 48.6712 43.1817 52.1666 37.8063 53.9078C32.431 55.649 26.6267 55.5352 21.3237 53.5845C16.0208 51.6338 11.5263 47.9593 8.56058 43.1499C5.59486 38.3404 4.32965 32.6746 4.96775 27.0604C5.60585 21.4462 8.1103 16.2088 12.0797 12.1876L23.6545 0.590088C17.1317 2.01071 11.2677 5.56296 6.98785 10.6863C2.70802 15.8095 0.256075 22.2121 0.0189696 28.8836C-0.218136 35.5551 1.77309 42.1156 5.67842 47.5298C9.58375 52.944 15.1808 56.9036 21.5863 58.7837C27.9918 60.6638 34.841 60.3573 41.0529 57.9127C47.2649 55.4681 52.486 51.0245 55.8923 45.2832C59.2985 39.5419 60.6959 32.8298 59.8639 26.2061C59.032 19.5825 56.0181 13.4244 51.2978 8.7038ZM30.0774 15.2402C33.4875 15.2364 36.7936 16.4141 39.4333 18.573C42.073 20.7319 43.8832 23.7386 44.556 27.0817C45.2288 30.4248 44.7227 33.8977 43.1237 36.9097C41.5247 39.9216 38.9316 42.2866 35.7855 43.6023C32.6395 44.918 29.1347 45.1032 25.8676 44.1262C22.6004 43.1493 19.7726 41.0706 17.8652 38.2439C15.9577 35.4171 15.0886 32.0168 15.4054 28.6215C15.7223 25.2261 17.2057 22.0454 19.6033 19.6204L20.2048 19.019C22.917 16.5789 26.4404 15.2359 30.0887 15.2515L30.0774 15.2402Z" fill="#4277C2"/>
<path d="M29.459 3.91501L26.7923 9.58893C23.4423 7.45584 19.593 6.23533 15.626 6.0484C11.8698 6.0484 9.41871 7.46688 9.41871 10.0201C9.41871 18.3495 30.0151 13.8898 29.9583 27.6093C29.9583 34.418 23.9666 38.6167 15.5806 38.6167C9.82057 38.582 4.2747 36.4291 1.03893e-06 32.5683L2.78022 27.0079C6.27549 30.3549 10.8606 32.3292 15.6941 32.5683C20.1651 32.5683 22.8319 30.8775 22.8319 27.9384C22.8319 19.4389 2.23553 24.1823 2.23553 10.6216C2.23553 4.08523 7.84136 3.46309e-07 16.1253 3.46309e-07C20.8518 0.00988379 25.4774 1.36804 29.459 3.91501Z" transform="translate(79.4999 10.701)" fill="#4277C2"/>
<path d="M2.77047e-06 38.1288V-1.73154e-07H6.42288V38.1288H2.77047e-06Z" transform="translate(120.239 10.962)" fill="#4277C2"/>
<path d="M35.7003 38.1288H28.0178L17.7253 23.751L7.51227 38.1288H1.73154e-06L13.8557 18.5424L0.941875 -1.73154e-07H8.40875L17.7253 13.2429L27.0987 0.0113479H34.6109L21.8106 18.3041L35.7003 38.1288Z" transform="translate(135.797 10.962)" fill="#4277C2"/>
</svg>
