<?xml version="1.0" encoding="utf-8"?>
<!-- Generator: Adobe Illustrator 22.1.0, SVG Export Plug-In . SVG Version: 6.00 Build 0)  -->
<svg version="1.1" id="Layer_1" xmlns="http://www.w3.org/2000/svg" xmlns:xlink="http://www.w3.org/1999/xlink" x="0px" y="0px"
	 viewBox="0 0 256 64" style="enable-background:new 0 0 256 64;" xml:space="preserve">
<style type="text/css">
	.st0{fill:#231F20;}
	.st1{fill:#4C925C;}
	.st2{opacity:0.54;}
	.st3{opacity:0.42;}
	.st4{fill:#000A00;}
</style>
<g>
	<path class="st0" d="M39.9,41.9h-6.5l-5-7.7v7.7h-5.2v-20h8.1c1.1,0,2.1,0.2,2.9,0.5c0.8,0.3,1.5,0.8,2.1,1.3
		c0.5,0.6,0.9,1.2,1.2,2c0.3,0.7,0.4,1.5,0.4,2.4c0,1.5-0.4,2.8-1.1,3.7c-0.7,0.9-1.8,1.6-3.3,1.9L39.9,41.9z M28.5,30.9h1
		c1,0,1.8-0.2,2.4-0.6c0.5-0.4,0.8-1,0.8-1.8c0-0.8-0.3-1.4-0.8-1.8c-0.5-0.4-1.3-0.6-2.4-0.6h-1V30.9z"/>
	<path class="st0" d="M53.5,26.3h-6.2v3.3h5.8v4.4h-5.8v3.5h6.2v4.4H42.1v-20h11.4V26.3z"/>
	<path class="st0" d="M71.7,28.6c-1.2-1.5-2.7-2.2-4.5-2.2c-0.8,0-1.5,0.1-2.2,0.4c-0.7,0.3-1.2,0.7-1.7,1.2
		c-0.5,0.5-0.9,1.1-1.1,1.7c-0.3,0.7-0.4,1.4-0.4,2.2c0,0.8,0.1,1.5,0.4,2.2c0.3,0.7,0.7,1.3,1.1,1.8c0.5,0.5,1.1,0.9,1.7,1.2
		c0.7,0.3,1.4,0.4,2.1,0.4c1.7,0,3.2-0.7,4.5-2.1v6.2l-0.5,0.2c-0.8,0.3-1.5,0.5-2.2,0.6c-0.7,0.1-1.4,0.2-2,0.2
		c-1.4,0-2.7-0.3-4-0.8c-1.3-0.5-2.4-1.3-3.3-2.2c-1-0.9-1.7-2.1-2.3-3.4c-0.6-1.3-0.9-2.7-0.9-4.3c0-1.5,0.3-3,0.9-4.2
		c0.6-1.3,1.3-2.4,2.3-3.3c1-0.9,2.1-1.7,3.4-2.2c1.3-0.5,2.6-0.8,4-0.8c0.8,0,1.6,0.1,2.4,0.3c0.8,0.2,1.6,0.4,2.4,0.8V28.6z"/>
	<path class="st0" d="M80.2,21.9v10.9c0,0.6,0,1.2,0.1,1.8c0,0.6,0.2,1.2,0.4,1.7c0.2,0.5,0.6,0.9,1,1.2c0.5,0.3,1.2,0.5,2,0.5
		c0.9,0,1.5-0.2,2-0.5c0.5-0.3,0.8-0.7,1-1.2c0.2-0.5,0.4-1,0.4-1.7c0-0.6,0.1-1.2,0.1-1.8V21.9h5.2v11.6c0,3.1-0.7,5.4-2.1,6.8
		c-1.4,1.4-3.6,2.2-6.6,2.2c-3,0-5.2-0.7-6.6-2.2c-1.4-1.4-2.2-3.7-2.2-6.8V21.9H80.2z"/>
	<path class="st0" d="M113.3,41.9h-6.5l-5-7.7v7.7h-5.2v-20h8.1c1.1,0,2.1,0.2,2.9,0.5c0.8,0.3,1.5,0.8,2.1,1.3
		c0.5,0.6,0.9,1.2,1.2,2c0.3,0.7,0.4,1.5,0.4,2.4c0,1.5-0.4,2.8-1.1,3.7c-0.7,0.9-1.8,1.6-3.3,1.9L113.3,41.9z M101.8,30.9h1
		c1,0,1.8-0.2,2.4-0.6c0.5-0.4,0.8-1,0.8-1.8c0-0.8-0.3-1.4-0.8-1.8c-0.5-0.4-1.3-0.6-2.4-0.6h-1V30.9z"/>
	<path class="st1" d="M126.4,27c-0.6-0.5-1.1-0.8-1.7-1c-0.6-0.2-1.1-0.3-1.6-0.3c-0.7,0-1.2,0.2-1.6,0.5c-0.4,0.3-0.6,0.7-0.6,1.2
		c0,0.4,0.1,0.6,0.3,0.9c0.2,0.2,0.5,0.4,0.8,0.6c0.3,0.2,0.7,0.3,1.2,0.4c0.4,0.1,0.9,0.3,1.3,0.4c1.7,0.6,2.9,1.3,3.7,2.3
		c0.8,0.9,1.2,2.2,1.2,3.7c0,1-0.2,2-0.5,2.8c-0.3,0.8-0.8,1.5-1.5,2.1c-0.7,0.6-1.5,1.1-2.4,1.4c-1,0.3-2.1,0.5-3.3,0.5
		c-2.5,0-4.9-0.8-7-2.3l2.2-4.2c0.8,0.7,1.5,1.2,2.3,1.5c0.8,0.3,1.5,0.5,2.3,0.5c0.8,0,1.5-0.2,1.9-0.6c0.4-0.4,0.6-0.8,0.6-1.3
		c0-0.3-0.1-0.6-0.2-0.8c-0.1-0.2-0.3-0.4-0.5-0.6c-0.2-0.2-0.6-0.4-1-0.5c-0.4-0.2-0.9-0.3-1.4-0.5c-0.7-0.2-1.3-0.4-2-0.7
		c-0.6-0.3-1.2-0.6-1.7-1c-0.5-0.4-0.9-1-1.2-1.6c-0.3-0.6-0.5-1.5-0.5-2.5c0-1,0.2-1.9,0.5-2.7c0.3-0.8,0.8-1.5,1.4-2.1
		c0.6-0.6,1.3-1,2.2-1.3c0.9-0.3,1.8-0.5,2.9-0.5c1,0,2,0.1,3.1,0.4c1.1,0.3,2.1,0.7,3.1,1.2L126.4,27z"/>
	<path class="st1" d="M137.9,21.9v20h-5.2v-20H137.9z"/>
	<path class="st1" d="M148,31.3l-6.2-9.4h6.4l2.7,5.2l3.3-5.2h6.4l-6.6,9.4l7.5,10.7h-6.3l-4-6.5l-4.7,6.5h-6.3L148,31.3z"/>
</g>
<path class="st1" d="M168.8,51H15V13h153.8V51z M17.6,48.4h148.6V15.6H17.6V48.4z"/>
<g>
	<path class="st2" d="M208.8,33.5c-1.2-1.2-2.7-1.9-4.4-2l0,0l-3.6,3.6c-1.9,1.7-2,4.6-0.3,6.4c1.7,1.9,4.6,2,6.4,0.3
		c1.9-1.7,2-4.6,0.3-6.4c-0.9-0.9-2.1-1.5-3.4-1.5c-0.1,0-0.2,0-0.3,0l1.3-1.3c3.2,0.5,5.4,3.6,4.8,6.8c-0.5,3.2-3.6,5.4-6.8,4.8
		c-3.2-0.5-5.4-3.6-4.8-6.8c0.2-1.2,0.8-2.3,1.6-3.2l2.7-2.7c-3.8,0.8-6.2,4.6-5.4,8.3c0.8,3.8,4.6,6.2,8.3,5.4s6.2-4.6,5.4-8.3
		C210.4,35.6,209.7,34.4,208.8,33.5z M203.8,35c1.9,0,3.4,1.5,3.4,3.4c0,1.9-1.5,3.4-3.4,3.4c-1.9,0-3.4-1.5-3.4-3.4
		c0-0.9,0.4-1.8,1-2.4l0,0l0.1-0.1C202.2,35.3,203,35,203.8,35L203.8,35z"/>
	<path class="st2" d="M220.4,34.8l-0.6,1.3c-0.8-0.5-1.7-0.8-2.6-0.8c-0.9,0-1.4,0.3-1.4,0.9c0,1.9,4.8,0.9,4.8,4.1
		c0,1.6-1.4,2.6-3.4,2.6c-1.3,0-2.6-0.5-3.6-1.4l0.6-1.3c0.8,0.8,1.9,1.2,3,1.3c1,0,1.7-0.4,1.7-1.1c0-2-4.8-0.9-4.8-4
		c0-1.5,1.3-2.5,3.2-2.5C218.4,33.9,219.5,34.2,220.4,34.8z"/>
	<path class="st2" d="M223.1,42.9V34h1.5v8.9H223.1z"/>
	<path class="st2" d="M235,42.9h-1.8l-2.4-3.4l-2.4,3.4h-1.8l3.2-4.6l-3-4.3h1.7l2.2,3.1L233,34h1.8l-3,4.3L235,42.9z"/>
</g>
<g class="st3">
	<path class="st4" d="M185,22.7c0.5,0.4,0.7,1,0.7,1.7c0,0.8-0.2,1.4-0.7,1.8c-0.5,0.4-1.2,0.6-2,0.6h-1.7V29h-1v-7h2.7
		C183.8,22,184.5,22.2,185,22.7z M184.3,25.6c0.3-0.3,0.5-0.7,0.5-1.2c0-0.5-0.2-0.9-0.5-1.1c-0.3-0.3-0.8-0.4-1.4-0.4l-1.7,0V26
		h1.7C183.5,26,184,25.8,184.3,25.6z"/>
	<path class="st4" d="M192.4,22.4c0.6,0.3,1,0.7,1.3,1.3c0.3,0.5,0.5,1.1,0.5,1.8s-0.2,1.3-0.5,1.8c-0.3,0.6-0.8,1-1.3,1.3
		c-0.6,0.3-1.2,0.5-1.9,0.5c-0.7,0-1.3-0.2-1.9-0.5c-0.6-0.3-1-0.8-1.3-1.3c-0.3-0.5-0.5-1.2-0.5-1.8s0.2-1.3,0.5-1.8
		c0.3-0.5,0.8-1,1.3-1.3c0.6-0.3,1.2-0.5,1.9-0.5C191.2,22,191.8,22.1,192.4,22.4z M189.2,23.2c-0.4,0.2-0.7,0.6-1,1
		c-0.2,0.4-0.4,0.9-0.4,1.4c0,0.5,0.1,0.9,0.4,1.4c0.2,0.4,0.6,0.7,1,1c0.4,0.2,0.9,0.4,1.4,0.4c0.5,0,0.9-0.1,1.3-0.4
		c0.4-0.2,0.7-0.6,1-1c0.2-0.4,0.4-0.9,0.4-1.4c0-0.5-0.1-0.9-0.4-1.4c-0.2-0.4-0.6-0.7-1-1c-0.4-0.2-0.9-0.4-1.3-0.4
		C190,22.8,189.6,23,189.2,23.2z"/>
	<path class="st4" d="M204.4,22h1l-2.4,7h-1l-1.8-5.8l-1.8,5.8h-1l-2.4-7h1l1.8,6l1.8-6h1l1.8,6L204.4,22z"/>
	<path class="st4" d="M206.9,22h4.9v0.9h-3.9v2.2h3.5v0.9h-3.5v2.2h4V29h-5V22z"/>
	<path class="st4" d="M218.5,29l-1.4-2.2c-0.2,0-0.3,0-0.4,0h-1.8V29h-1v-7h2.7c0.9,0,1.6,0.2,2.1,0.6c0.5,0.4,0.7,1,0.7,1.7
		c0,0.6-0.1,1-0.4,1.4s-0.6,0.7-1.1,0.8l1.6,2.4H218.5z M216.7,26c0.6,0,1.1-0.1,1.4-0.4c0.3-0.3,0.5-0.7,0.5-1.2
		c0-0.5-0.2-0.9-0.5-1.1c-0.3-0.3-0.8-0.4-1.4-0.4h-1.8V26H216.7z"/>
	<path class="st4" d="M221.7,22h4.9v0.9h-3.9v2.2h3.5v0.9h-3.5v2.2h4V29h-5V22z"/>
	<path class="st4" d="M233.4,22.5c0.5,0.3,1,0.7,1.3,1.3c0.3,0.5,0.5,1.1,0.5,1.8s-0.2,1.3-0.5,1.8c-0.3,0.5-0.8,1-1.3,1.3
		c-0.6,0.3-1.2,0.5-1.9,0.5h-2.8v-7h2.8C232.3,22,232.9,22.2,233.4,22.5z M232.9,27.8c0.4-0.2,0.7-0.5,0.9-0.9
		c0.2-0.4,0.3-0.8,0.3-1.3c0-0.5-0.1-0.9-0.4-1.3c-0.2-0.4-0.6-0.7-1-0.9s-0.9-0.3-1.3-0.3h-1.9v5.3h1.9
		C232.1,28.2,232.5,28,232.9,27.8z"/>
</g>
<g class="st3">
	<path class="st4" d="M184.9,35.4c0.4,0.3,0.6,0.7,0.6,1.3c0,0.4-0.1,0.7-0.3,1c-0.2,0.3-0.5,0.5-0.9,0.6c0.5,0.1,0.9,0.3,1.1,0.6
		s0.4,0.7,0.4,1.2c0,0.6-0.2,1.1-0.7,1.4c-0.5,0.3-1.1,0.5-1.9,0.5h-3v-7h3C183.9,34.9,184.5,35.1,184.9,35.4z M184.2,37.6
		c0.2-0.2,0.4-0.4,0.4-0.8c0-0.3-0.1-0.6-0.4-0.8c-0.2-0.2-0.6-0.3-1-0.3h-2v2.1h2C183.6,37.9,183.9,37.8,184.2,37.6z M184.4,40.7
		c0.3-0.2,0.4-0.5,0.4-0.9c0-0.4-0.1-0.6-0.4-0.8c-0.3-0.2-0.7-0.3-1.2-0.3h-2V41h2C183.7,41,184.1,40.9,184.4,40.7z"/>
	<path class="st4" d="M193.1,34.9l-2.6,4.6v2.4h-1v-2.4l-2.7-4.6h1l2.2,3.6l2.1-3.6H193.1z"/>
</g>
</svg>
