<svg id="Layer_1" data-name="Layer 1" xmlns="http://www.w3.org/2000/svg" viewBox="0 0 215 98">
  <title>six in white</title>
  <g>
    <path d="M132.74,34.67a24.21,24.21,0,0,0-7.15-1.34,8.47,8.47,0,0,0-4.5,1,3.36,3.36,0,0,0-1.65,3,4.24,4.24,0,0,0,2.38,3.89,36.27,36.27,0,0,0,7.36,2.79,63.92,63.92,0,0,1,8.19,2.9,14.47,14.47,0,0,1,5.49,4.34A12,12,0,0,1,145.14,59a13.15,13.15,0,0,1-2.45,8A15,15,0,0,1,136,72a25.9,25.9,0,0,1-9.74,1.73,33.35,33.35,0,0,1-11.54-2.07A31.1,31.1,0,0,1,104.86,66l4.35-8.9a29.26,29.26,0,0,0,8.43,5.31,22.8,22.8,0,0,0,8.71,2,9.59,9.59,0,0,0,5.28-1.24,4.32,4.32,0,0,0,.62-6.65,9.75,9.75,0,0,0-3.24-2c-1.32-.5-3.13-1.08-5.43-1.72a61.88,61.88,0,0,1-8.12-2.76,14.35,14.35,0,0,1-5.42-4.2,11.63,11.63,0,0,1-2.28-7.52,12.71,12.71,0,0,1,2.35-7.62,14.86,14.86,0,0,1,6.56-5A25.38,25.38,0,0,1,126.48,24a34,34,0,0,1,9.82,1.45,32.91,32.91,0,0,1,8.56,3.86l-4.21,9A37,37,0,0,0,132.74,34.67Z" style="fill: #fff"/>
    <path d="M151.85,24.85h10.92V73.11H151.85Z" style="fill: #fff"/>
    <path d="M167.74,24.85h12.71L190.54,39.6,200.7,24.85h12.92l-16.1,23.09L215,73.11H201.94L190.54,57l-11.2,16.07H166.56L183.9,48.43Z" style="fill: #fff"/>
  </g>
  <g>
    <polygon points="95.15 61.63 95.15 34.98 72.08 21.66 50 34.4 85.72 55.02 85.72 67.08 95.15 61.63" style="fill: #fff"/>
    <polygon points="82.51 14.48 59.44 1.15 36.36 14.48 36.36 39.97 72.08 19.35 82.51 25.37 82.51 14.48" style="fill: #fff"/>
    <polygon points="35.36 1.85 12.28 15.17 12.28 41.82 34.36 54.56 34.36 13.32 44.8 7.3 35.36 1.85" style="fill: #fff"/>
    <polygon points="46 63.6 10.28 42.97 10.28 30.92 0.85 36.37 0.85 63.02 23.92 76.34 46 63.6" style="fill: #fff"/>
    <polygon points="23.92 78.65 13.49 72.63 13.49 83.52 36.56 96.85 59.64 83.52 59.64 58.03 23.92 78.65" style="fill: #fff"/>
    <polygon points="51.2 90.7 60.64 96.15 83.72 82.83 83.72 56.18 61.64 43.43 61.64 84.68 51.2 90.7" style="fill: #fff"/>
  </g>
</svg>
