<svg id="Layer_1" data-name="Layer 1" xmlns="http://www.w3.org/2000/svg" viewBox="0 0 128 128">
  <title>FIN Square</title>
  <rect width="128" height="128" style="fill: #fff"/>
  <g>
    <path d="M115.24,12.76V115.24H12.76V12.76H115.24M128,0H0V128H128V0Z" style="fill: #48925b"/>
    <path d="M64.94,88.87H48.52L36.07,69.35h-.14V88.87H22.74V38.12H42.46c10,0,17.63,4.78,17.63,15.62,0,7-3.9,13.05-11.1,14.33Zm-29-28h1.28c4.31,0,9.15-.81,9.15-6.33s-4.84-6.32-9.15-6.32H35.93Z"/>
    <path d="M89,52.86a16.64,16.64,0,0,0-7.06,1.55l-.14-.14L95.33,38.12H80.46L70.33,51.38C66,57.1,62.19,64.24,62.19,71.57A18.82,18.82,0,0,0,69,85.5c3.91,3.1,9.56,4.38,14.47,4.38,11.58,0,21.81-6.73,21.81-19.18C105.26,61.41,98.93,52.86,89,52.86ZM83.39,79.51a8.35,8.35,0,1,1,0-16.69,8.35,8.35,0,0,1,0,16.69Z" style="fill: #4a955c"/>
  </g>
</svg>
