<svg id="Layer_1" data-name="Layer 1" xmlns="http://www.w3.org/2000/svg" viewBox="0 0 215 98">
  <title>six in blue</title>
  <g>
    <path d="M132.74,34.67a24.21,24.21,0,0,0-7.15-1.34,8.47,8.47,0,0,0-4.5,1,3.36,3.36,0,0,0-1.65,3,4.24,4.24,0,0,0,2.38,3.89,36.27,36.27,0,0,0,7.36,2.79,63.92,63.92,0,0,1,8.19,2.9,14.47,14.47,0,0,1,5.49,4.34A12,12,0,0,1,145.14,59a13.15,13.15,0,0,1-2.45,8A15,15,0,0,1,136,72a25.9,25.9,0,0,1-9.74,1.73,33.35,33.35,0,0,1-11.54-2.07A31.1,31.1,0,0,1,104.86,66l4.35-8.9a29.26,29.26,0,0,0,8.43,5.31,22.8,22.8,0,0,0,8.71,2,9.59,9.59,0,0,0,5.28-1.24,4.32,4.32,0,0,0,.62-6.65,9.75,9.75,0,0,0-3.24-2c-1.32-.5-3.13-1.08-5.43-1.72a61.88,61.88,0,0,1-8.12-2.76,14.35,14.35,0,0,1-5.42-4.2,11.63,11.63,0,0,1-2.28-7.52,12.71,12.71,0,0,1,2.35-7.62,14.86,14.86,0,0,1,6.56-5A25.38,25.38,0,0,1,126.48,24a34,34,0,0,1,9.82,1.45,32.91,32.91,0,0,1,8.56,3.86l-4.21,9A37,37,0,0,0,132.74,34.67Z" style="fill: #ffffff"/>
    <path d="M151.85,24.85h10.92V73.11H151.85Z" style="fill: #ffffff"/>
    <path d="M167.74,24.85h12.71L190.54,39.6,200.7,24.85h12.92l-16.1,23.09L215,73.11H201.94L190.54,57l-11.2,16.07H166.56L183.9,48.43Z" style="fill: #ffffff"/>
  </g>
  <polygon points="46.8 7.3 35.4 0.69 11.4 14.6 11.4 42.4 35.4 56.3 35.4 41.7 35.4 13.9 46.8 7.3" style="fill: #4da6ff"/>
  <polygon points="11.4 42.4 11.4 29.19 0 35.79 0 63.6 24 77.5 48 63.6 11.4 42.4" style="fill: #0080ff"/>
  <polygon points="24 77.5 12.6 70.89 12.6 84.1 36.6 98 60.6 84.1 60.6 56.3 24 77.5" style="fill: #9cf"/>
  <polygon points="60.6 41.7 60.6 84.1 49.2 90.7 60.6 97.31 84.6 83.4 84.6 55.6 60.6 41.7" style="fill: #4da6ff"/>
  <polygon points="96 34.4 72 20.5 48 34.4 84.6 55.6 84.6 68.81 96 62.2 96 34.4" style="fill: #0080ff"/>
  <polygon points="59.4 0 35.4 13.9 35.4 41.7 35.4 41.7 72 20.5 72 20.5 83.4 27.11 83.4 13.9 59.4 0" style="fill: #9cf"/>
</svg>
