<?xml version="1.0" encoding="utf-8"?>
<!-- Generator: Adobe Illustrator 22.1.0, SVG Export Plug-In . SVG Version: 6.00 Build 0)  -->
<svg version="1.1" id="Layer_1" xmlns="http://www.w3.org/2000/svg" xmlns:xlink="http://www.w3.org/1999/xlink" x="0px" y="0px"
	 viewBox="0 0 240 78" style="enable-background:new 0 0 240 78;" xml:space="preserve">
<style type="text/css">
	.st0{fill:#231F20;}
	.st1{fill:#4C925C;}
	.st2{opacity:0.54;}
	.st3{opacity:0.42;}
	.st4{fill:#000A00;}
</style>
<g>
	<g>
		<path class="st0" d="M38.9,44.9H28.8L21,33v12h-8.1V13.8h12.6c1.7,0,3.3,0.3,4.6,0.8c1.3,0.5,2.4,1.2,3.2,2.1
			c0.8,0.9,1.5,1.9,1.9,3.1c0.4,1.2,0.6,2.4,0.6,3.7c0,2.4-0.6,4.3-1.7,5.8c-1.1,1.5-2.8,2.5-5.1,3L38.9,44.9z M21,27.7h1.5
			c1.6,0,2.8-0.3,3.7-1c0.9-0.7,1.3-1.6,1.3-2.8c0-1.2-0.4-2.2-1.3-2.8c-0.9-0.7-2.1-1-3.7-1H21V27.7z"/>
		<path class="st0" d="M60.1,20.7h-9.7v5.2h9.1v6.8h-9.1v5.4h9.7v6.8H42.3V13.8h17.8V20.7z"/>
		<path class="st0" d="M88.4,24.2c-1.9-2.3-4.2-3.4-7-3.4c-1.2,0-2.3,0.2-3.4,0.7c-1,0.4-1.9,1-2.7,1.8c-0.7,0.8-1.3,1.7-1.8,2.7
			c-0.4,1-0.6,2.2-0.6,3.4c0,1.2,0.2,2.4,0.6,3.4c0.4,1,1,2,1.8,2.7c0.8,0.8,1.7,1.4,2.7,1.8c1,0.4,2.1,0.7,3.3,0.7
			c2.6,0,4.9-1.1,7-3.3v9.6l-0.8,0.3c-1.2,0.4-2.4,0.8-3.5,1c-1.1,0.2-2.1,0.3-3.2,0.3c-2.2,0-4.2-0.4-6.2-1.2c-2-0.8-3.7-2-5.2-3.4
			c-1.5-1.5-2.7-3.2-3.6-5.2c-0.9-2-1.4-4.2-1.4-6.6c0-2.4,0.4-4.6,1.3-6.6c0.9-2,2.1-3.7,3.6-5.2c1.5-1.4,3.3-2.6,5.2-3.4
			c2-0.8,4.1-1.2,6.3-1.2c1.2,0,2.5,0.1,3.7,0.4c1.2,0.3,2.5,0.7,3.8,1.2V24.2z"/>
		<path class="st0" d="M101.7,13.8v16.9c0,0.9,0,1.8,0.1,2.8c0.1,0.9,0.3,1.8,0.6,2.6c0.3,0.8,0.9,1.4,1.6,1.9
			c0.7,0.5,1.8,0.7,3.1,0.7c1.4,0,2.4-0.2,3.1-0.7c0.7-0.5,1.3-1.1,1.6-1.9c0.4-0.8,0.6-1.6,0.6-2.6c0.1-0.9,0.1-1.9,0.1-2.8V13.8
			h8.1v18c0,4.8-1.1,8.4-3.3,10.6c-2.2,2.2-5.6,3.3-10.3,3.3c-4.6,0-8-1.1-10.3-3.3s-3.4-5.8-3.4-10.6v-18H101.7z"/>
		<path class="st0" d="M153.3,44.9h-10.1l-7.7-12v12h-8.1V13.8H140c1.7,0,3.3,0.3,4.6,0.8c1.3,0.5,2.4,1.2,3.2,2.1
			c0.8,0.9,1.5,1.9,1.9,3.1c0.4,1.2,0.6,2.4,0.6,3.7c0,2.4-0.6,4.3-1.7,5.8c-1.1,1.5-2.8,2.5-5.1,3L153.3,44.9z M135.5,27.7h1.5
			c1.6,0,2.8-0.3,3.7-1c0.9-0.7,1.3-1.6,1.3-2.8c0-1.2-0.4-2.2-1.3-2.8c-0.9-0.7-2.1-1-3.7-1h-1.5V27.7z"/>
		<path class="st1" d="M173.9,21.8c-0.9-0.7-1.8-1.2-2.7-1.6c-0.9-0.3-1.7-0.5-2.6-0.5c-1.1,0-1.9,0.2-2.6,0.7c-0.7,0.5-1,1.1-1,1.9
			c0,0.6,0.2,1,0.5,1.4c0.3,0.4,0.8,0.7,1.3,0.9c0.5,0.3,1.1,0.5,1.8,0.7c0.7,0.2,1.3,0.4,2,0.6c2.7,0.9,4.6,2.1,5.8,3.5
			c1.2,1.5,1.8,3.4,1.8,5.8c0,1.6-0.3,3-0.8,4.3c-0.5,1.3-1.3,2.4-2.4,3.3c-1,0.9-2.3,1.6-3.8,2.1c-1.5,0.5-3.2,0.8-5.1,0.8
			c-4,0-7.6-1.2-11-3.5l3.5-6.5c1.2,1.1,2.4,1.9,3.6,2.4c1.2,0.5,2.4,0.8,3.5,0.8c1.3,0,2.3-0.3,3-0.9c0.6-0.6,1-1.3,1-2.1
			c0-0.5-0.1-0.9-0.2-1.2c-0.2-0.3-0.4-0.7-0.8-0.9c-0.4-0.3-0.9-0.6-1.5-0.8c-0.6-0.2-1.4-0.5-2.3-0.8c-1.1-0.3-2.1-0.7-3.1-1.1
			s-1.9-0.9-2.7-1.6c-0.8-0.7-1.4-1.5-1.9-2.5c-0.5-1-0.7-2.3-0.7-3.8c0-1.5,0.3-2.9,0.8-4.2c0.5-1.3,1.2-2.3,2.2-3.2
			c0.9-0.9,2.1-1.6,3.4-2.1c1.3-0.5,2.8-0.7,4.5-0.7c1.5,0,3.2,0.2,4.8,0.6c1.7,0.4,3.3,1.1,4.8,1.9L173.9,21.8z"/>
		<path class="st1" d="M191.8,13.8v31.1h-8.1V13.8H191.8z"/>
		<path class="st1" d="M207.5,28.4l-9.7-14.5h10l4.2,8l5.2-8h10L217,28.4l11.6,16.6h-9.9l-6.3-10.1l-7.3,10.1h-9.8L207.5,28.4z"/>
	</g>
	<path class="st1" d="M240,59H0V0h240V59z M4,55H236V4H4V55z"/>
</g>
<g>
	<g>
		<path class="st2" d="M151.7,65.5c-1.2-1.2-2.7-1.9-4.4-2l0,0l-3.6,3.6c-1.9,1.7-2,4.6-0.3,6.4c1.7,1.9,4.6,2,6.4,0.3
			c1.9-1.7,2-4.6,0.3-6.4c-0.9-0.9-2.1-1.5-3.4-1.5c-0.1,0-0.2,0-0.3,0l1.3-1.3c3.2,0.5,5.4,3.6,4.8,6.8c-0.5,3.2-3.6,5.4-6.8,4.8
			c-3.2-0.5-5.4-3.6-4.8-6.8c0.2-1.2,0.8-2.3,1.6-3.2l2.7-2.7c-3.8,0.8-6.2,4.6-5.4,8.3c0.8,3.8,4.6,6.2,8.3,5.4
			c3.8-0.8,6.2-4.6,5.4-8.3C153.3,67.6,152.6,66.4,151.7,65.5z M146.7,67c1.9,0,3.4,1.5,3.4,3.4c0,1.9-1.5,3.4-3.4,3.4
			c-1.9,0-3.4-1.5-3.4-3.4c0-0.9,0.4-1.8,1-2.4l0,0l0.1-0.1C145.1,67.3,145.9,67,146.7,67L146.7,67z"/>
		<path class="st2" d="M163.3,66.9l-0.6,1.3c-0.8-0.5-1.7-0.8-2.6-0.8c-0.9,0-1.4,0.3-1.4,0.9c0,1.9,4.8,0.9,4.8,4.1
			c0,1.6-1.4,2.6-3.4,2.6c-1.3,0-2.6-0.5-3.6-1.4l0.6-1.3c0.8,0.8,1.9,1.2,3,1.3c1,0,1.7-0.4,1.7-1.1c0-2-4.8-0.9-4.8-4
			c0-1.5,1.3-2.5,3.2-2.5C161.3,66,162.4,66.3,163.3,66.9z"/>
		<path class="st2" d="M165.9,74.9V66h1.5v8.9H165.9z"/>
		<path class="st2" d="M177.9,74.9h-1.8l-2.4-3.4l-2.4,3.4h-1.8l3.2-4.6l-3-4.3h1.7l2.2,3.1l2.2-3.1h1.8l-3,4.3L177.9,74.9z"/>
	</g>
	<g class="st3">
		<path class="st4" d="M66.8,67.6c0.5,0.4,0.7,1,0.7,1.7c0,0.8-0.2,1.4-0.7,1.8c-0.5,0.4-1.2,0.6-2,0.6h-1.7V74h-1v-7h2.7
			C65.7,67,66.4,67.2,66.8,67.6z M66.2,70.5c0.3-0.3,0.5-0.7,0.5-1.2c0-0.5-0.2-0.9-0.5-1.1c-0.3-0.3-0.8-0.4-1.4-0.4l-1.7,0v3.1
			h1.7C65.4,70.9,65.8,70.8,66.2,70.5z"/>
		<path class="st4" d="M74.2,67.4c0.6,0.3,1,0.7,1.3,1.3c0.3,0.5,0.5,1.1,0.5,1.8s-0.2,1.3-0.5,1.8c-0.3,0.6-0.8,1-1.3,1.3
			c-0.6,0.3-1.2,0.5-1.9,0.5c-0.7,0-1.3-0.2-1.9-0.5c-0.6-0.3-1-0.8-1.3-1.3c-0.3-0.5-0.5-1.2-0.5-1.8s0.2-1.3,0.5-1.8
			c0.3-0.5,0.8-1,1.3-1.3c0.6-0.3,1.2-0.5,1.9-0.5C73.1,66.9,73.7,67,74.2,67.4z M71,68.1c-0.4,0.2-0.7,0.6-1,1
			c-0.2,0.4-0.4,0.9-0.4,1.4c0,0.5,0.1,0.9,0.4,1.4c0.2,0.4,0.6,0.7,1,1c0.4,0.2,0.9,0.4,1.4,0.4c0.5,0,0.9-0.1,1.3-0.4
			c0.4-0.2,0.7-0.6,1-1c0.2-0.4,0.4-0.9,0.4-1.4c0-0.5-0.1-0.9-0.4-1.4c-0.2-0.4-0.6-0.7-1-1c-0.4-0.2-0.9-0.4-1.3-0.4
			C71.9,67.7,71.5,67.9,71,68.1z"/>
		<path class="st4" d="M86.3,67h1l-2.4,7h-1l-1.8-5.8L80.3,74h-1l-2.4-7h1l1.8,6l1.8-6h1l1.8,6L86.3,67z"/>
		<path class="st4" d="M88.8,67h4.9v0.9h-3.9V70h3.5v0.9h-3.5v2.2h4V74h-5V67z"/>
		<path class="st4" d="M100.4,74L99,71.7c-0.2,0-0.3,0-0.4,0h-1.8V74h-1v-7h2.7c0.9,0,1.6,0.2,2.1,0.6c0.5,0.4,0.7,1,0.7,1.7
			c0,0.6-0.1,1-0.4,1.4s-0.6,0.7-1.1,0.8l1.6,2.4H100.4z M98.6,70.9c0.6,0,1.1-0.1,1.4-0.4c0.3-0.3,0.5-0.7,0.5-1.2
			c0-0.5-0.2-0.9-0.5-1.1c-0.3-0.3-0.8-0.4-1.4-0.4h-1.8v3.1H98.6z"/>
		<path class="st4" d="M103.6,67h4.9v0.9h-3.9V70h3.5v0.9h-3.5v2.2h4V74h-5V67z"/>
		<path class="st4" d="M115.3,67.4c0.5,0.3,1,0.7,1.3,1.3c0.3,0.5,0.5,1.1,0.5,1.8s-0.2,1.3-0.5,1.8c-0.3,0.5-0.8,1-1.3,1.3
			c-0.6,0.3-1.2,0.5-1.9,0.5h-2.8v-7h2.8C114.1,67,114.8,67.1,115.3,67.4z M114.8,72.7c0.4-0.2,0.7-0.5,0.9-0.9
			c0.2-0.4,0.3-0.8,0.3-1.3c0-0.5-0.1-0.9-0.4-1.3c-0.2-0.4-0.6-0.7-1-0.9s-0.9-0.3-1.3-0.3h-1.9v5.3h1.9
			C114,73.1,114.4,73,114.8,72.7z"/>
	</g>
	<g class="st3">
		<path class="st4" d="M127.8,67.4c0.4,0.3,0.6,0.7,0.6,1.3c0,0.4-0.1,0.7-0.3,1c-0.2,0.3-0.5,0.5-0.9,0.6c0.5,0.1,0.9,0.3,1.1,0.6
			s0.4,0.7,0.4,1.2c0,0.6-0.2,1.1-0.7,1.4c-0.5,0.3-1.1,0.5-1.9,0.5h-3v-7h3C126.8,67,127.4,67.1,127.8,67.4z M127.1,69.6
			c0.2-0.2,0.4-0.4,0.4-0.8c0-0.3-0.1-0.6-0.4-0.8c-0.2-0.2-0.6-0.3-1-0.3h-2v2.1h2C126.5,69.9,126.8,69.8,127.1,69.6z M127.3,72.8
			c0.3-0.2,0.4-0.5,0.4-0.9c0-0.4-0.1-0.6-0.4-0.8c-0.3-0.2-0.7-0.3-1.2-0.3h-2v2.3h2C126.6,73.1,127,73,127.3,72.8z"/>
		<path class="st4" d="M136,67l-2.6,4.6V74h-1v-2.4l-2.7-4.6h1l2.2,3.6L135,67H136z"/>
	</g>
</g>
</svg>
