<svg id="Layer_1" data-name="Layer 1" xmlns="http://www.w3.org/2000/svg" viewBox="0 0 220 38">
  <title>Recursix powered by six nav</title>
  <g>
    <path d="M24.9,28.9H18.4l-5-7.7v7.7H8.2V8.9h8.1a8.36,8.36,0,0,1,2.9.5,7.43,7.43,0,0,1,2.1,1.3,6.66,6.66,0,0,1,1.2,2,6.05,6.05,0,0,1,.4,2.4,6,6,0,0,1-1.1,3.7,5.4,5.4,0,0,1-3.3,1.9Zm-11.4-11h1a4.27,4.27,0,0,0,2.4-.6,2.2,2.2,0,0,0,.8-1.8,2.2,2.2,0,0,0-.8-1.8,3.84,3.84,0,0,0-2.4-.6h-1Z" style="fill: #231f20"/>
    <path d="M38.5,13.3H32.3v3.3h5.8V21H32.3v3.5h6.2v4.4H27.1V8.9H38.5Z" style="fill: #231f20"/>
    <path d="M56.7,15.6a5.49,5.49,0,0,0-4.5-2.2,5.38,5.38,0,0,0-2.2.4A5.23,5.23,0,0,0,48.3,15a4.52,4.52,0,0,0-1.1,1.7,5.38,5.38,0,0,0-.4,2.2,5.38,5.38,0,0,0,.4,2.2,7.84,7.84,0,0,0,1.1,1.8A6.57,6.57,0,0,0,50,24.1a5.22,5.22,0,0,0,2.1.4,6,6,0,0,0,4.5-2.1v6.2l-.5.2a10.41,10.41,0,0,1-2.2.6,15,15,0,0,1-2,.2,11,11,0,0,1-4-.8,9.55,9.55,0,0,1-3.3-2.2,10.21,10.21,0,0,1-2.3-3.4,10,10,0,0,1-.9-4.3,9.58,9.58,0,0,1,.9-4.2,9.79,9.79,0,0,1,2.3-3.3,10.85,10.85,0,0,1,7.4-3,9.86,9.86,0,0,1,2.4.3,11.28,11.28,0,0,1,2.4.8v6.1Z" style="fill: #231f20"/>
    <path d="M65.2,8.9V19.8a10.87,10.87,0,0,0,.1,1.8,4.71,4.71,0,0,0,.4,1.7,2.94,2.94,0,0,0,1,1.2,3.94,3.94,0,0,0,2,.5,3.68,3.68,0,0,0,2-.5,2.34,2.34,0,0,0,1-1.2,4.26,4.26,0,0,0,.4-1.7c0-.6.1-1.2.1-1.8V8.9h5.2V20.5c0,3.1-.7,5.4-2.1,6.8s-3.6,2.2-6.6,2.2-5.2-.7-6.6-2.2-2.2-3.7-2.2-6.8V8.9Z" style="fill: #231f20"/>
    <path d="M98.3,28.9H91.8l-5-7.7v7.7H81.6V8.9h8.1a8.36,8.36,0,0,1,2.9.5,7.43,7.43,0,0,1,2.1,1.3,6.66,6.66,0,0,1,1.2,2,6.05,6.05,0,0,1,.4,2.4,6,6,0,0,1-1.1,3.7,5.4,5.4,0,0,1-3.3,1.9Zm-11.5-11h1a4.27,4.27,0,0,0,2.4-.6,2.2,2.2,0,0,0,.8-1.8,2.2,2.2,0,0,0-.8-1.8,3.84,3.84,0,0,0-2.4-.6h-1Z" style="fill: #231f20"/>
    <path d="M111.4,14a5,5,0,0,0-1.7-1,5,5,0,0,0-1.6-.3,2.54,2.54,0,0,0-1.6.5,1.43,1.43,0,0,0-.6,1.2,1.4,1.4,0,0,0,.3.9,5.55,5.55,0,0,0,.8.6,3.37,3.37,0,0,0,1.2.4c.4.1.9.3,1.3.4a7.85,7.85,0,0,1,3.7,2.3,5.49,5.49,0,0,1,1.2,3.7,8.21,8.21,0,0,1-.5,2.8,5.11,5.11,0,0,1-1.5,2.1A7.22,7.22,0,0,1,110,29a11.42,11.42,0,0,1-3.3.5,12,12,0,0,1-7-2.3l2.2-4.2a7.54,7.54,0,0,0,2.3,1.5,6.35,6.35,0,0,0,2.3.5,2.71,2.71,0,0,0,1.9-.6,1.76,1.76,0,0,0,.6-1.3,1.88,1.88,0,0,0-.2-.8,2.65,2.65,0,0,0-.5-.6,2.34,2.34,0,0,0-1-.5c-.4-.2-.9-.3-1.4-.5a15.87,15.87,0,0,1-2-.7,9.5,9.5,0,0,1-1.7-1,4.81,4.81,0,0,1-1.2-1.6,5.83,5.83,0,0,1-.5-2.5,7.63,7.63,0,0,1,.5-2.7,6,6,0,0,1,1.4-2.1,5.37,5.37,0,0,1,2.2-1.3,8.81,8.81,0,0,1,2.9-.5,11.48,11.48,0,0,1,3.1.4,16.59,16.59,0,0,1,3.1,1.2Z" style="fill: #4c925c"/>
    <path d="M122.9,8.9v20h-5.2V8.9Z" style="fill: #4c925c"/>
    <path d="M133,18.3l-6.2-9.4h6.4l2.7,5.2,3.3-5.2h6.4L139,18.3,146.5,29h-6.3l-4-6.5L131.5,29h-6.3Z" style="fill: #4c925c"/>
  </g>
  <path d="M153.8,38H0V0H153.8ZM2.6,35.4H151.2V2.6H2.6Z" style="fill: #4c925c"/>
  <g>
    <path d="M193.6,20.5a6.67,6.67,0,0,0-4.4-2h0l-3.6,3.6a4.53,4.53,0,1,0,6.4.3,4.86,4.86,0,0,0-3.4-1.5h-.3l1.3-1.3a5.89,5.89,0,1,1-6.8,4.8,6.49,6.49,0,0,1,1.6-3.2l2.7-2.7A7,7,0,1,0,190,32.2a7.11,7.11,0,0,0,5.4-8.3A6.27,6.27,0,0,0,193.6,20.5Zm-5,1.5a3.4,3.4,0,1,1-3.4,3.4,3.49,3.49,0,0,1,1-2.4h0l.1-.1a3.52,3.52,0,0,1,2.3-.9Z" style="opacity: 0.5400000214576721;isolation: isolate"/>
    <path d="M205.2,21.8l-.6,1.3a5,5,0,0,0-2.6-.8c-.9,0-1.4.3-1.4.9,0,1.9,4.8.9,4.8,4.1,0,1.6-1.4,2.6-3.4,2.6a5.43,5.43,0,0,1-3.6-1.4l.6-1.3a4.82,4.82,0,0,0,3,1.3c1,0,1.7-.4,1.7-1.1,0-2-4.8-.9-4.8-4,0-1.5,1.3-2.5,3.2-2.5A5.61,5.61,0,0,1,205.2,21.8Z" style="opacity: 0.5400000214576721;isolation: isolate"/>
    <path d="M207.9,29.9V21h1.5v8.9Z" style="opacity: 0.5400000214576721;isolation: isolate"/>
    <path d="M219.8,29.9H218l-2.4-3.4-2.4,3.4h-1.8l3.2-4.6-3-4.3h1.7l2.2,3.1,2.3-3.1h1.8l-3,4.3Z" style="opacity: 0.5400000214576721;isolation: isolate"/>
  </g>
  <g style="opacity: 0.41999998688697815">
    <path d="M169.8,9.7a2.06,2.06,0,0,1,.7,1.7,2.14,2.14,0,0,1-.7,1.8,3.17,3.17,0,0,1-2,.6h-1.7V16h-1V9h2.7A2.72,2.72,0,0,1,169.8,9.7Zm-.7,2.9a1.66,1.66,0,0,0,.5-1.2,1.29,1.29,0,0,0-.5-1.1,2,2,0,0,0-1.4-.4H166V13h1.7A2.59,2.59,0,0,0,169.1,12.6Z" style="fill: #000a00"/>
    <path d="M177.2,9.4a2.74,2.74,0,0,1,1.3,1.3,3.49,3.49,0,0,1,0,3.6,3.25,3.25,0,0,1-1.3,1.3,3.86,3.86,0,0,1-3.8,0,3.25,3.25,0,0,1-1.3-1.3,3.74,3.74,0,0,1-.5-1.8,3.74,3.74,0,0,1,.5-1.8,4,4,0,0,1,1.3-1.3,4.14,4.14,0,0,1,1.9-.5A5.92,5.92,0,0,1,177.2,9.4Zm-3.2.8a3.18,3.18,0,0,0-1,1,3.26,3.26,0,0,0-.4,1.4A2.5,2.5,0,0,0,173,14a3.18,3.18,0,0,0,1,1,3.26,3.26,0,0,0,1.4.4,2,2,0,0,0,1.3-.4,3.18,3.18,0,0,0,1-1,3.26,3.26,0,0,0,.4-1.4,2.5,2.5,0,0,0-.4-1.4,3.18,3.18,0,0,0-1-1,3.26,3.26,0,0,0-1.3-.4A2.89,2.89,0,0,0,174,10.2Z" style="fill: #000a00"/>
    <path d="M189.2,9h1l-2.4,7h-1L185,10.2,183.2,16h-1l-2.4-7h1l1.8,6,1.8-6h1l1.8,6Z" style="fill: #000a00"/>
    <path d="M191.7,9h4.9v.9h-3.9v2.2h3.5V13h-3.5v2.2h4V16h-5Z" style="fill: #000a00"/>
    <path d="M203.3,16l-1.4-2.2h-2.2V16h-1V9h2.7a3.28,3.28,0,0,1,2.1.6,2.06,2.06,0,0,1,.7,1.7,2.12,2.12,0,0,1-.4,1.4,1.78,1.78,0,0,1-1.1.8l1.6,2.4h-1Zm-1.8-3a2,2,0,0,0,1.4-.4,1.66,1.66,0,0,0,.5-1.2,1.29,1.29,0,0,0-.5-1.1,2,2,0,0,0-1.4-.4h-1.8V13Z" style="fill: #000a00"/>
    <path d="M206.5,9h4.9v.9h-3.9v2.2H211V13h-3.5v2.2h4V16h-5Z" style="fill: #000a00"/>
    <path d="M218.2,9.5a3.25,3.25,0,0,1,1.3,1.3,3.49,3.49,0,0,1,0,3.6,4,4,0,0,1-1.3,1.3,4.14,4.14,0,0,1-1.9.5h-2.8v-7h2.8A2.37,2.37,0,0,1,218.2,9.5Zm-.5,5.3a2,2,0,0,0,.9-.9,2.77,2.77,0,0,0,.3-1.3,2,2,0,0,0-.4-1.3,2.19,2.19,0,0,0-1-.9,3.08,3.08,0,0,0-1.3-.3h-1.9v5.3h1.9A7.7,7.7,0,0,0,217.7,14.8Z" style="fill: #000a00"/>
  </g>
  <g style="opacity: 0.41999998688697815">
    <path d="M169.7,22.4a1.49,1.49,0,0,1,.6,1.3,1.69,1.69,0,0,1-.3,1,1.46,1.46,0,0,1-.9.6,1.68,1.68,0,0,1,1.1.6,2.14,2.14,0,0,1,.4,1.2,1.51,1.51,0,0,1-.7,1.4,3.56,3.56,0,0,1-1.9.5h-3V22h3A2.29,2.29,0,0,1,169.7,22.4Zm-.7,2.2a1,1,0,0,0,.4-.8.91.91,0,0,0-.4-.8,1.49,1.49,0,0,0-1-.3h-2v2.1h2A1.16,1.16,0,0,0,169,24.6Zm.2,3.1a1,1,0,0,0,.4-.9.81.81,0,0,0-.4-.8,2.13,2.13,0,0,0-1.2-.3h-2V28h2A2.13,2.13,0,0,0,169.2,27.7Z" style="fill: #000a00"/>
    <path d="M177.9,21.9l-2.6,4.6v2.4h-1V26.5l-2.7-4.6h1l2.2,3.6,2.1-3.6Z" style="fill: #000a00"/>
  </g>
</svg>
