<svg width="242" height="78" viewBox="0 0 242 78" fill="none" xmlns="http://www.w3.org/2000/svg">
<path d="M64.8896 71.7456V74H63.5713V67.6016H66.0674C66.5479 67.6016 66.9697 67.6895 67.333 67.8652C67.6992 68.041 67.9805 68.2915 68.1768 68.6167C68.373 68.939 68.4712 69.3066 68.4712 69.7197C68.4712 70.3467 68.2559 70.8418 67.8252 71.2051C67.3975 71.5654 66.8042 71.7456 66.0454 71.7456H64.8896ZM64.8896 70.6777H66.0674C66.416 70.6777 66.6812 70.5957 66.8628 70.4316C67.0474 70.2676 67.1396 70.0332 67.1396 69.7285C67.1396 69.415 67.0474 69.1616 66.8628 68.9683C66.6782 68.7749 66.4233 68.6753 66.0981 68.6694H64.8896V70.6777ZM76.4367 70.9458C76.4367 71.5757 76.3254 72.1279 76.1027 72.6025C75.8801 73.0771 75.5607 73.4434 75.1447 73.7012C74.7316 73.959 74.257 74.0879 73.7209 74.0879C73.1906 74.0879 72.7175 73.9604 72.3015 73.7056C71.8854 73.4507 71.5632 73.0874 71.3347 72.6157C71.1062 72.1411 70.9904 71.5962 70.9875 70.981V70.6646C70.9875 70.0347 71.1003 69.481 71.3259 69.0034C71.5544 68.5229 71.8752 68.1553 72.2883 67.9004C72.7043 67.6426 73.1789 67.5137 73.7121 67.5137C74.2453 67.5137 74.7185 67.6426 75.1315 67.9004C75.5476 68.1553 75.8684 68.5229 76.0939 69.0034C76.3225 69.481 76.4367 70.0332 76.4367 70.6602V70.9458ZM75.1008 70.6558C75.1008 69.9849 74.9807 69.4751 74.7404 69.1265C74.5002 68.7778 74.1574 68.6035 73.7121 68.6035C73.2697 68.6035 72.9284 68.7764 72.6882 69.1221C72.4479 69.4648 72.3264 69.9688 72.3234 70.6338V70.9458C72.3234 71.5991 72.4436 72.106 72.6838 72.4663C72.924 72.8267 73.2697 73.0068 73.7209 73.0068C74.1633 73.0068 74.5031 72.834 74.7404 72.4883C74.9777 72.1396 75.0979 71.6328 75.1008 70.9678V70.6558ZM84.1781 72.1543L85.0395 67.6016H86.3534L84.934 74H83.6068L82.5653 69.7197L81.5238 74H80.1967L78.7772 67.6016H80.0912L80.9569 72.1455L82.0116 67.6016H83.1278L84.1781 72.1543ZM92.7193 71.2271H90.1881V72.9409H93.1588V74H88.8697V67.6016H93.15V68.6694H90.1881V70.1943H92.7193V71.2271ZM98.1009 71.6577H97.0506V74H95.7322V67.6016H98.1097C98.8655 67.6016 99.4485 67.77 99.8587 68.1069C100.269 68.4438 100.474 68.9199 100.474 69.5352C100.474 69.9717 100.379 70.3364 100.188 70.6294C100.001 70.9194 99.7151 71.1509 99.3313 71.3237L100.716 73.9385V74H99.3006L98.1009 71.6577ZM97.0506 70.5898H98.1141C98.4451 70.5898 98.7015 70.5063 98.8831 70.3394C99.0647 70.1694 99.1556 69.9365 99.1556 69.6406C99.1556 69.3389 99.0691 69.1016 98.8963 68.9287C98.7264 68.7559 98.4642 68.6694 98.1097 68.6694H97.0506V70.5898ZM107.13 71.2271H104.599V72.9409H107.569V74H103.28V67.6016H107.561V68.6694H104.599V70.1943H107.13V71.2271ZM110.143 74V67.6016H112.112C112.674 67.6016 113.176 67.729 113.619 67.9839C114.064 68.2358 114.411 68.5962 114.66 69.0649C114.909 69.5308 115.034 70.061 115.034 70.6558V70.9502C115.034 71.5449 114.911 72.0737 114.665 72.5366C114.422 72.9995 114.077 73.3584 113.632 73.6133C113.187 73.8682 112.684 73.9971 112.125 74H110.143ZM111.461 68.6694V72.9409H112.098C112.614 72.9409 113.008 72.7725 113.28 72.4355C113.553 72.0986 113.692 71.6167 113.698 70.9897V70.6514C113.698 70.001 113.563 69.5088 113.294 69.1748C113.024 68.8379 112.63 68.6694 112.112 68.6694H111.461ZM121.838 74V67.6016H124.079C124.855 67.6016 125.444 67.751 125.845 68.0498C126.247 68.3457 126.447 68.7808 126.447 69.355C126.447 69.6685 126.367 69.9453 126.206 70.1855C126.045 70.4229 125.82 70.5972 125.533 70.7085C125.861 70.7905 126.119 70.9561 126.307 71.2051C126.497 71.4541 126.592 71.7588 126.592 72.1191C126.592 72.7344 126.396 73.2002 126.004 73.5166C125.611 73.833 125.051 73.9941 124.325 74H121.838ZM123.156 71.2139V72.9409H124.285C124.596 72.9409 124.838 72.8677 125.01 72.7212C125.186 72.5718 125.274 72.3667 125.274 72.106C125.274 71.52 124.971 71.2227 124.364 71.2139H123.156ZM123.156 70.2822H124.131C124.796 70.2705 125.129 70.0054 125.129 69.4868C125.129 69.1968 125.044 68.9888 124.874 68.8628C124.707 68.7339 124.442 68.6694 124.079 68.6694H123.156V70.2822ZM131.346 70.4844L132.677 67.6016H134.118L132.018 71.6797V74H130.678V71.6797L128.577 67.6016H130.023L131.346 70.4844Z" fill="black" fill-opacity="0.54"/>
<path d="M163.33 68.2507C162.976 68.1253 162.606 68.047 162.236 68.047C161.989 68.0313 161.758 68.094 161.542 68.2037C161.373 68.2978 161.28 68.4858 161.28 68.6739C161.28 68.9247 161.419 69.1755 161.65 69.2852C162.005 69.4733 162.39 69.6144 162.791 69.7241C163.222 69.8495 163.638 69.9905 164.055 70.1786C164.394 70.3354 164.671 70.5705 164.902 70.8526C165.149 71.1974 165.272 71.6363 165.257 72.0752C165.272 72.5297 165.134 72.9686 164.887 73.3291C164.625 73.6896 164.27 73.9561 163.854 74.1128C163.376 74.3009 162.868 74.3949 162.359 74.3793C161.758 74.3793 161.157 74.2695 160.587 74.0501C160.032 73.8463 159.523 73.5485 159.061 73.1567L159.724 71.7617C160.109 72.1065 160.54 72.3887 161.018 72.5924C161.434 72.7805 161.897 72.8902 162.359 72.9059C162.637 72.9216 162.929 72.8589 163.176 72.7178C163.484 72.5141 163.561 72.0909 163.361 71.7774C163.33 71.746 163.315 71.699 163.284 71.6677C163.145 71.5266 162.976 71.4169 162.791 71.3542C162.59 71.2758 162.313 71.1818 161.958 71.0877C161.527 70.978 161.111 70.8213 160.71 70.6489C160.386 70.5078 160.093 70.2727 159.878 69.9905C159.631 69.6457 159.508 69.2382 159.523 68.815C159.508 68.3918 159.646 67.9686 159.878 67.6238C160.14 67.2633 160.479 66.9968 160.895 66.8401C161.373 66.652 161.897 66.5579 162.405 66.5736C162.914 66.5736 163.423 66.652 163.916 66.8087C164.378 66.9498 164.825 67.1536 165.241 67.42L164.594 68.8307C164.163 68.5799 163.762 68.3918 163.33 68.2507Z" fill="#737373"/>
<path d="M166.274 66.7147H167.954V74.2853H166.274V66.7147Z" fill="#737373"/>
<path d="M168.725 66.7147H170.682L172.239 69.0188L173.811 66.7147H175.8L173.318 70.3354L176 74.2853H173.981L172.224 71.7617L170.497 74.2853H168.525L171.206 70.4138L168.725 66.7147Z" fill="#737373"/>
<path d="M157.535 72.4828V68.2978L153.974 66.2132L150.583 68.2038L156.086 71.4483V73.3292L157.535 72.4828Z" fill="#737373"/>
<path d="M155.593 65.0846L152.032 63L148.472 65.0846V69.0815L153.974 65.8527L155.593 66.7931V65.0846Z" fill="#737373"/>
<path d="M148.318 63.1097L144.757 65.1944V69.3793L148.163 71.3699V64.9122L149.782 63.9718L148.318 63.1097Z" fill="#737373"/>
<path d="M149.967 72.7806L144.449 69.5517V67.6708L143 68.5172V72.7022L146.56 74.7868L149.967 72.7806Z" fill="#737373"/>
<path d="M146.56 75.1474L144.942 74.2069V75.9154L148.503 78L152.063 75.9154V71.9185L146.56 75.1474Z" fill="#737373"/>
<path d="M150.768 77.0282L152.217 77.8903L155.778 75.8056V71.6207L152.371 69.6301V76.0878L150.768 77.0282Z" fill="#737373"/>
<path d="M39.0176 44.871H28.8323L20.9974 32.9158V44.871H12.8492V13.8184H25.5416C27.1086 13.8184 28.6756 14.1289 30.0859 14.5947C31.3394 15.0605 32.4363 15.8368 33.3765 16.6131C34.16 17.5447 34.7868 18.6315 35.2569 19.7184C35.7269 20.9605 35.8836 22.2026 35.8836 23.4447C36.0403 25.4631 35.4136 27.4815 34.16 29.1894C32.9064 30.7421 31.026 31.8289 28.989 32.1394L39.0176 44.871ZM21.1541 27.7921H22.7211C23.9747 27.7921 25.3849 27.4815 26.4818 26.8605C27.2653 26.2394 27.7354 25.1526 27.7354 24.0658C27.7354 22.9789 27.2653 21.8921 26.4818 21.271C25.3849 20.4947 23.9747 20.1842 22.7211 20.3394H21.1541V27.7921V27.7921Z" fill="#231F20"/>
<path d="M60.3284 20.65H50.6131V25.7737H59.7016V32.6052H50.6131V38.0394H60.3284V44.871H42.4649V13.8184H60.3284V20.65Z" fill="#231F20"/>
<path d="M88.8473 24.221C87.1236 22.0473 84.6164 20.8052 81.7959 20.8052C80.5423 20.8052 79.4454 20.9605 78.3486 21.4263C77.4084 21.8921 76.4682 22.5131 75.6847 23.2895C74.9012 24.0658 74.2744 24.9973 73.961 25.9289C73.491 27.0158 73.3343 28.1026 73.3343 29.3447C73.3343 30.5868 73.491 31.6737 73.961 32.7605C74.4311 33.6921 75.0579 34.7789 75.6847 35.5552C76.4682 36.3316 77.4084 36.9526 78.3486 37.4184C79.4454 37.8842 80.5423 38.0395 81.6392 38.0395C84.303 38.0395 86.9669 36.7973 88.6906 34.7789V44.4052L87.9071 44.7158C86.8102 45.1816 85.7133 45.4921 84.4597 45.6473C83.3629 45.8026 82.4227 45.9579 81.3258 45.9579C79.132 45.9579 77.095 45.4921 75.0579 44.7158C73.1776 43.9395 71.2972 42.8526 69.8869 41.3C68.3199 39.7473 67.0664 38.0395 66.2829 36.021C65.3427 34.0026 64.8726 31.6737 64.8726 29.3447C64.8726 27.0158 65.3427 24.8421 66.2829 22.8237C67.0664 20.9605 68.3199 19.0973 69.8869 17.7C73.0209 14.75 77.095 13.0421 81.4825 13.0421C82.7361 13.0421 83.9897 13.1973 85.2432 13.5079C86.4968 13.8184 87.7504 14.1289 89.004 14.75V24.221H88.8473Z" fill="#231F20"/>
<path d="M102.166 13.8184V30.7421C102.166 31.6737 102.166 32.6052 102.323 33.5368C102.323 34.4684 102.637 35.4 102.95 36.1763C103.263 36.9526 103.89 37.5737 104.517 38.0394C105.457 38.5052 106.554 38.8158 107.651 38.8158C108.748 38.8158 109.845 38.6605 110.785 38.0394C111.568 37.5737 112.038 36.9526 112.352 36.1763C112.665 35.4 112.979 34.4684 112.979 33.5368C112.979 32.6052 113.135 31.6737 113.135 30.7421V13.8184H121.283V31.8289C121.283 36.6421 120.187 40.2131 117.993 42.3868C115.799 44.5605 112.352 45.8026 107.651 45.8026C102.95 45.8026 99.5026 44.7158 97.3088 42.3868C95.1151 40.0579 93.8615 36.6421 93.8615 31.8289V13.8184H102.166Z" fill="#231F20"/>
<path d="M154.033 44.871H143.848L136.013 32.9158V44.871H127.865V13.8184H140.557C142.124 13.8184 143.691 14.1289 145.101 14.5947C146.355 15.0605 147.452 15.8368 148.392 16.6131C149.176 17.5447 149.802 18.6315 150.272 19.7184C150.743 20.9605 150.899 22.2026 150.899 23.4447C151.056 25.4631 150.429 27.4815 149.176 29.1894C147.922 30.7421 146.042 31.8289 144.005 32.1394L154.033 44.871ZM136.013 27.7921H137.58C138.834 27.7921 140.244 27.4815 141.341 26.8605C142.124 26.2394 142.594 25.1526 142.594 24.0658C142.594 22.9789 142.124 21.8921 141.341 21.271C140.244 20.4947 138.834 20.1842 137.58 20.3394H136.013V27.7921Z" fill="#231F20"/>
<path d="M174.56 21.7368C173.777 21.1158 172.837 20.4947 171.897 20.1842C171.113 19.8737 170.173 19.7184 169.389 19.7184C168.449 19.7184 167.666 20.0289 166.882 20.4947C166.256 20.9605 165.942 21.5816 165.942 22.3579C165.942 22.8237 166.099 23.2895 166.412 23.7553C166.726 24.0658 167.196 24.3763 167.666 24.6868C168.293 24.9974 168.919 25.1526 169.546 25.3079C170.173 25.4632 170.956 25.7737 171.583 25.9289C173.777 26.55 175.814 27.7921 177.381 29.5C178.635 31.0526 179.418 33.2263 179.261 35.2447C179.261 36.7974 178.948 38.1947 178.478 39.5921C178.008 40.8342 177.224 41.9211 176.127 42.8526C175.031 43.7842 173.777 44.5605 172.367 45.0263C170.643 45.4921 168.919 45.8026 167.196 45.8026C163.278 45.8026 159.361 44.5605 156.227 42.2316L159.674 35.7105C160.771 36.6421 161.868 37.4184 163.278 38.0395C164.375 38.5053 165.629 38.8158 166.882 38.8158C167.979 38.8158 169.076 38.5053 169.86 37.8842C170.486 37.4184 170.8 36.6421 170.8 35.8658C170.8 35.4 170.643 34.9342 170.486 34.6237C170.33 34.3132 170.016 34.0026 169.703 33.6921C169.233 33.3816 168.763 33.0711 168.136 32.9158C167.509 32.6053 166.726 32.45 165.942 32.1395C164.845 31.8289 163.905 31.5184 162.808 31.0526C161.868 30.5868 160.928 30.1211 160.144 29.5C159.361 28.8789 158.734 27.9474 158.264 27.0158C157.794 25.7737 157.48 24.5316 157.48 23.1342C157.48 21.7368 157.794 20.3395 158.264 18.9421C158.734 17.7 159.518 16.6132 160.458 15.6816C161.398 14.75 162.651 13.9737 163.905 13.6632C165.315 13.1974 166.882 12.8868 168.449 12.8868C170.016 12.8868 171.74 13.0421 173.307 13.5079C175.031 13.9737 176.598 14.5947 178.164 15.3711L174.56 21.7368Z" fill="#4C925C"/>
<path d="M192.581 13.8184V44.871H184.432V13.8184H192.581V13.8184Z" fill="#4C925C"/>
<path d="M208.407 28.4131L198.692 13.8184H208.72L212.951 21.8921L218.122 13.8184H228.151L217.809 28.4131L229.561 45.0263H219.689L213.421 34.9342L206.057 45.0263H196.185L208.407 28.4131Z" fill="#4C925C"/>
<path d="M241 59H0V0H241V59ZM4.07412 54.9632H236.926V4.03684H4.07412V54.9632Z" fill="#4C925C"/>
</svg>
