<svg id="Layer_1" data-name="Layer 1" xmlns="http://www.w3.org/2000/svg" viewBox="0 0 96 98">
  <title>six blue symbol</title>
  <polygon points="46.8 7.3 35.4 0.69 11.4 14.6 11.4 42.4 35.4 56.3 35.4 41.7 35.4 13.9 46.8 7.3" style="fill: #4DA6FF"/>
  <polygon points="11.4 42.4 11.4 29.19 0 35.79 0 63.6 24 77.5 48 63.6 11.4 42.4" style="fill: #4DA6FF"/>
  <polygon points="24 77.5 12.6 70.89 12.6 84.1 36.6 98 60.6 84.1 60.6 56.3 24 77.5" style="fill: #4DA6FF"/>
  <polygon points="60.6 41.7 60.6 84.1 49.2 90.7 60.6 97.31 84.6 83.4 84.6 55.6 60.6 41.7" style="fill: #4DA6FF"/>
  <polygon points="96 34.4 72 20.5 48 34.4 84.6 55.6 84.6 68.81 96 62.2 96 34.4" style="fill: #4DA6FF"/>
  <polygon points="59.4 0 35.4 13.9 35.4 41.7 35.4 41.7 72 20.5 72 20.5 83.4 27.11 83.4 13.9 59.4 0" style="fill: #4DA6FF"/>
</svg>
