<svg width="210" height="38" viewBox="0 0 210 38" fill="none" xmlns="http://www.w3.org/2000/svg">
<path d="M163.927 12.7456V15H162.609V8.60156H165.105C165.585 8.60156 166.007 8.68945 166.371 8.86523C166.737 9.04102 167.018 9.2915 167.214 9.6167C167.411 9.93896 167.509 10.3066 167.509 10.7197C167.509 11.3467 167.293 11.8418 166.863 12.2051C166.435 12.5654 165.842 12.7456 165.083 12.7456H163.927ZM163.927 11.6777H165.105C165.454 11.6777 165.719 11.5957 165.9 11.4316C166.085 11.2676 166.177 11.0332 166.177 10.7285C166.177 10.415 166.085 10.1616 165.9 9.96826C165.716 9.7749 165.461 9.67529 165.136 9.66943H163.927V11.6777ZM174.574 11.9458C174.574 12.5757 174.463 13.1279 174.24 13.6025C174.018 14.0771 173.698 14.4434 173.282 14.7012C172.869 14.959 172.395 15.0879 171.858 15.0879C171.328 15.0879 170.855 14.9604 170.439 14.7056C170.023 14.4507 169.701 14.0874 169.472 13.6157C169.244 13.1411 169.128 12.5962 169.125 11.981V11.6646C169.125 11.0347 169.238 10.481 169.463 10.0034C169.692 9.52295 170.013 9.15527 170.426 8.90039C170.842 8.64258 171.316 8.51367 171.85 8.51367C172.383 8.51367 172.856 8.64258 173.269 8.90039C173.685 9.15527 174.006 9.52295 174.231 10.0034C174.46 10.481 174.574 11.0332 174.574 11.6602V11.9458ZM173.238 11.6558C173.238 10.9849 173.118 10.4751 172.878 10.1265C172.638 9.77783 172.295 9.60352 171.85 9.60352C171.407 9.60352 171.066 9.77637 170.826 10.1221C170.585 10.4648 170.464 10.9688 170.461 11.6338V11.9458C170.461 12.5991 170.581 13.106 170.821 13.4663C171.062 13.8267 171.407 14.0068 171.858 14.0068C172.301 14.0068 172.641 13.834 172.878 13.4883C173.115 13.1396 173.235 12.6328 173.238 11.9678V11.6558ZM181.416 13.1543L182.277 8.60156H183.591L182.171 15H180.844L179.803 10.7197L178.761 15H177.434L176.015 8.60156H177.329L178.194 13.1455L179.249 8.60156H180.365L181.416 13.1543ZM189.057 12.2271H186.526V13.9409H189.496V15H185.207V8.60156H189.488V9.66943H186.526V11.1943H189.057V12.2271ZM193.538 12.6577H192.488V15H191.17V8.60156H193.547C194.303 8.60156 194.886 8.77002 195.296 9.10693C195.706 9.44385 195.911 9.91992 195.911 10.5352C195.911 10.9717 195.816 11.3364 195.626 11.6294C195.438 11.9194 195.153 12.1509 194.769 12.3237L196.153 14.9385V15H194.738L193.538 12.6577ZM192.488 11.5898H193.552C193.883 11.5898 194.139 11.5063 194.321 11.3394C194.502 11.1694 194.593 10.9365 194.593 10.6406C194.593 10.3389 194.507 10.1016 194.334 9.92871C194.164 9.75586 193.902 9.66943 193.547 9.66943H192.488V11.5898ZM201.667 12.2271H199.136V13.9409H202.107V15H197.818V8.60156H202.098V9.66943H199.136V11.1943H201.667V12.2271ZM203.78 15V8.60156H205.749C206.312 8.60156 206.814 8.729 207.256 8.98389C207.702 9.23584 208.049 9.59619 208.298 10.0649C208.547 10.5308 208.671 11.061 208.671 11.6558V11.9502C208.671 12.5449 208.548 13.0737 208.302 13.5366C208.059 13.9995 207.715 14.3584 207.27 14.6133C206.824 14.8682 206.322 14.9971 205.762 15H203.78ZM205.099 9.66943V13.9409H205.736C206.251 13.9409 206.646 13.7725 206.918 13.4355C207.19 13.0986 207.33 12.6167 207.335 11.9897V11.6514C207.335 11.001 207.201 10.5088 206.931 10.1748C206.662 9.83789 206.268 9.66943 205.749 9.66943H205.099Z" fill="white"/>
<path d="M162.639 28V21.6016H164.88C165.656 21.6016 166.245 21.751 166.646 22.0498C167.048 22.3457 167.248 22.7808 167.248 23.355C167.248 23.6685 167.168 23.9453 167.007 24.1855C166.846 24.4229 166.621 24.5972 166.334 24.7085C166.662 24.7905 166.92 24.9561 167.108 25.2051C167.298 25.4541 167.393 25.7588 167.393 26.1191C167.393 26.7344 167.197 27.2002 166.805 27.5166C166.412 27.833 165.852 27.9941 165.126 28H162.639ZM163.957 25.2139V26.9409H165.086C165.397 26.9409 165.639 26.8677 165.811 26.7212C165.987 26.5718 166.075 26.3667 166.075 26.106C166.075 25.52 165.772 25.2227 165.165 25.2139H163.957ZM163.957 24.2822H164.933C165.598 24.2705 165.93 24.0054 165.93 23.4868C165.93 23.1968 165.845 22.9888 165.675 22.8628C165.508 22.7339 165.243 22.6694 164.88 22.6694H163.957V24.2822ZM171.247 24.4844L172.578 21.6016H174.02L171.919 25.6797V28H170.579V25.6797L168.478 21.6016H169.924L171.247 24.4844Z" fill="white"/>
<path d="M196.714 22.2507C196.37 22.1253 196.012 22.0469 195.653 22.0469C195.414 22.0313 195.19 22.094 194.98 22.2037C194.816 22.2977 194.726 22.4858 194.726 22.6739C194.726 22.9247 194.861 23.1755 195.085 23.2852C195.429 23.4733 195.802 23.6143 196.191 23.7241C196.61 23.8494 197.013 23.9905 197.417 24.1786C197.746 24.3353 198.015 24.5704 198.239 24.8526C198.478 25.1974 198.597 25.6363 198.582 26.0752C198.597 26.5297 198.463 26.9686 198.224 27.3291C197.97 27.6896 197.626 27.956 197.222 28.1128C196.759 28.3009 196.266 28.3949 195.773 28.3792C195.19 28.3792 194.607 28.2695 194.054 28.0501C193.516 27.8463 193.022 27.5485 192.574 27.1567L193.217 25.7617C193.59 26.1065 194.009 26.3886 194.472 26.5924C194.876 26.7805 195.324 26.8902 195.773 26.9059C196.042 26.9215 196.326 26.8589 196.565 26.7178C196.864 26.514 196.938 26.0908 196.744 25.7773C196.714 25.746 196.699 25.699 196.669 25.6676C196.535 25.5266 196.37 25.4168 196.191 25.3541C195.997 25.2758 195.728 25.1817 195.384 25.0877C194.966 24.978 194.562 24.8212 194.173 24.6488C193.859 24.5078 193.575 24.2726 193.366 23.9905C193.127 23.6457 193.008 23.2382 193.022 22.815C193.008 22.3918 193.142 21.9686 193.366 21.6237C193.62 21.2632 193.949 20.9968 194.353 20.84C194.816 20.652 195.324 20.5579 195.817 20.5736C196.311 20.5736 196.804 20.652 197.282 20.8087C197.731 20.9498 198.164 21.1535 198.568 21.42L197.94 22.8306C197.521 22.5799 197.133 22.3918 196.714 22.2507Z" fill="white"/>
<path d="M199.569 20.7147H201.198V28.2852H199.569V20.7147Z" fill="white"/>
<path d="M201.945 20.7147H203.844L205.353 23.0187L206.878 20.7147H208.806L206.399 24.3354L209 28.2852H207.042L205.338 25.7617L203.664 28.2852H201.751L204.352 24.4137L201.945 20.7147Z" fill="white"/>
<path d="M191.094 26.4828V22.2979L187.642 20.2132L184.354 22.2038L189.689 25.4483V27.3292L191.094 26.4828Z" fill="white"/>
<path d="M189.211 19.0846L185.758 17L182.306 19.0846V23.0815L187.642 19.8527L189.211 20.7931V19.0846Z" fill="white"/>
<path d="M182.156 17.1097L178.704 19.1944V23.3793L182.007 25.3699V18.9122L183.576 17.9718L182.156 17.1097Z" fill="white"/>
<path d="M183.756 26.7805L178.405 23.5517V21.6708L177 22.5172V26.7022L180.453 28.7868L183.756 26.7805Z" fill="white"/>
<path d="M180.453 29.1474L178.883 28.2069V29.9154L182.336 32L185.788 29.9154V25.9185L180.453 29.1474Z" fill="white"/>
<path d="M184.533 31.0282L185.938 31.8903L189.39 29.8056V25.6207L186.087 23.6301V30.0878L184.533 31.0282Z" fill="white"/>
<rect x="2" y="2" width="151" height="34" fill="white"/>
<path d="M25.0942 28.9H18.5435L13.5045 21.2V28.9H8.26392V8.89999H16.4271C17.4349 8.89999 18.4427 9.09999 19.3497 9.39999C20.156 9.69999 20.8614 10.2 21.4661 10.7C21.97 11.3 22.3731 12 22.6755 12.7C22.9778 13.5 23.0786 14.3 23.0786 15.1C23.1794 16.4 22.7763 17.7 21.97 18.8C21.1638 19.8 19.9544 20.5 18.6443 20.7L25.0942 28.9ZM13.6053 17.9H14.6131C15.4193 17.9 16.3263 17.7 17.0318 17.3C17.5357 16.9 17.838 16.2 17.838 15.5C17.838 14.8 17.5357 14.1 17.0318 13.7C16.3263 13.2 15.4193 13 14.6131 13.1H13.6053V17.9V17.9Z" fill="#231F20"/>
<path d="M38.8003 13.3H32.552V16.6H38.3972V21H32.552V24.5H38.8003V28.9H27.3114V8.89999H38.8003V13.3Z" fill="#231F20"/>
<path d="M57.1424 15.6C56.0338 14.2 54.4213 13.4 52.6073 13.4C51.801 13.4 51.0956 13.5 50.3901 13.8C49.7854 14.1 49.1808 14.5 48.6769 15C48.173 15.5 47.7698 16.1 47.5683 16.7C47.2659 17.4 47.1652 18.1 47.1652 18.9C47.1652 19.7 47.2659 20.4 47.5683 21.1C47.8706 21.7 48.2737 22.4 48.6769 22.9C49.1808 23.4 49.7854 23.8 50.3901 24.1C51.0956 24.4 51.801 24.5 52.5065 24.5C54.2198 24.5 55.933 23.7 57.0416 22.4V28.6L56.5377 28.8C55.8323 29.1 55.1268 29.3 54.3206 29.4C53.6151 29.5 53.0104 29.6 52.3049 29.6C50.894 29.6 49.5839 29.3 48.2737 28.8C47.0644 28.3 45.855 27.6 44.948 26.6C43.9402 25.6 43.1339 24.5 42.63 23.2C42.0254 21.9 41.723 20.4 41.723 18.9C41.723 17.4 42.0254 16 42.63 14.7C43.1339 13.5 43.9402 12.3 44.948 11.4C46.9636 9.49996 49.5839 8.39996 52.4057 8.39996C53.212 8.39996 54.0182 8.49996 54.8245 8.69996C55.6307 8.89996 56.4369 9.09996 57.2432 9.49996V15.6H57.1424Z" fill="#231F20"/>
<path d="M65.7088 8.89999V19.8C65.7088 20.4 65.7088 21 65.8096 21.6C65.8096 22.2 66.0111 22.8 66.2127 23.3C66.4142 23.8 66.8174 24.2 67.2205 24.5C67.8252 24.8 68.5306 25 69.2361 25C69.9415 25 70.647 24.9 71.2517 24.5C71.7556 24.2 72.0579 23.8 72.2595 23.3C72.4611 22.8 72.6626 22.2 72.6626 21.6C72.6626 21 72.7634 20.4 72.7634 19.8V8.89999H78.004V20.5C78.004 23.6 77.2985 25.9 75.8876 27.3C74.4767 28.7 72.2595 29.5 69.2361 29.5C66.2127 29.5 63.9955 28.8 62.5846 27.3C61.1737 25.8 60.3674 23.6 60.3674 20.5V8.89999H65.7088Z" fill="#231F20"/>
<path d="M99.067 28.9H92.5163L87.4773 21.2V28.9H82.2367V8.89999H90.3999C91.4077 8.89999 92.4155 9.09999 93.3225 9.39999C94.1288 9.69999 94.8342 10.2 95.4389 10.7C95.9428 11.3 96.3459 12 96.6483 12.7C96.9506 13.5 97.0514 14.3 97.0514 15.1C97.1522 16.4 96.749 17.7 95.9428 18.8C95.1366 19.8 93.9272 20.5 92.6171 20.7L99.067 28.9ZM87.4773 17.9H88.4851C89.2913 17.9 90.1983 17.7 90.9038 17.3C91.4077 16.9 91.71 16.2 91.71 15.5C91.71 14.8 91.4077 14.1 90.9038 13.7C90.1983 13.2 89.2913 13 88.4851 13.1H87.4773V17.9Z" fill="#231F20"/>
<path d="M112.269 14C111.765 13.6 111.16 13.2 110.556 13C110.052 12.8 109.447 12.7 108.943 12.7C108.339 12.7 107.835 12.9 107.331 13.2C106.928 13.5 106.726 13.9 106.726 14.4C106.726 14.7 106.827 15 107.028 15.3C107.23 15.5 107.532 15.7 107.835 15.9C108.238 16.1 108.641 16.2 109.044 16.3C109.447 16.4 109.951 16.6 110.354 16.7C111.765 17.1 113.075 17.9 114.083 19C114.889 20 115.393 21.4 115.292 22.7C115.292 23.7 115.091 24.6 114.789 25.5C114.486 26.3 113.982 27 113.277 27.6C112.571 28.2 111.765 28.7 110.858 29C109.75 29.3 108.641 29.5 107.532 29.5C105.013 29.5 102.493 28.7 100.478 27.2L102.695 23C103.4 23.6 104.106 24.1 105.013 24.5C105.718 24.8 106.525 25 107.331 25C108.036 25 108.742 24.8 109.246 24.4C109.649 24.1 109.85 23.6 109.85 23.1C109.85 22.8 109.75 22.5 109.649 22.3C109.548 22.1 109.346 21.9 109.145 21.7C108.843 21.5 108.54 21.3 108.137 21.2C107.734 21 107.23 20.9 106.726 20.7C106.021 20.5 105.416 20.3 104.711 20C104.106 19.7 103.501 19.4 102.997 19C102.493 18.6 102.09 18 101.788 17.4C101.486 16.6 101.284 15.8 101.284 14.9C101.284 14 101.486 13.1 101.788 12.2C102.09 11.4 102.594 10.7 103.199 10.1C103.804 9.49999 104.61 8.99999 105.416 8.79999C106.323 8.49999 107.331 8.29999 108.339 8.29999C109.346 8.29999 110.455 8.39999 111.463 8.69999C112.571 8.99999 113.579 9.39999 114.587 9.89999L112.269 14Z" fill="#4C925C"/>
<path d="M123.859 8.89999V28.9H118.618V8.89999H123.859V8.89999Z" fill="#4C925C"/>
<path d="M134.038 18.3L127.789 8.89999H134.239L136.96 14.1L140.286 8.89999H146.736L140.084 18.3L147.643 29H141.294L137.263 22.5L132.526 29H126.177L134.038 18.3Z" fill="#4C925C"/>
<path d="M155 38H0V0H155V38ZM2.62029 35.4H152.38V2.6H2.62029V35.4Z" fill="#4C925C"/>
</svg>
