<?xml version="1.0" encoding="UTF-8"?>
<svg width="40px" height="40px" viewBox="0 0 40 40" version="1.1" xmlns="http://www.w3.org/2000/svg" xmlns:xlink="http://www.w3.org/1999/xlink">
    <!-- Generator: Sketch 47 (45396) - http://www.bohemiancoding.com/sketch -->
    <title>test merchant</title>
    <desc>Created with Sketch.</desc>
    <defs></defs>
    <g id="Dashboard" stroke="none" stroke-width="1" fill="none" fill-rule="evenodd">
        <g id="Notifications" transform="translate(-184.000000, -796.000000)">
            <g id="test-merchant" transform="translate(184.000000, 796.000000)">
                <circle id="Oval-4" fill="#4A90E2" cx="20" cy="20" r="20"></circle>
                <g id="ic_computer_24px" transform="translate(11.000000, 11.000000)">
                    <polygon id="Shape" points="0 0 18 0 18 18 0 18"></polygon>
                    <path d="M15,13.5 C15.825,13.5 16.4925,12.825 16.4925,12 L16.5,4.5 C16.5,3.675 15.825,3 15,3 L3,3 C2.175,3 1.5,3.675 1.5,4.5 L1.5,12 C1.5,12.825 2.175,13.5 3,13.5 L0,13.5 L0,15 L18,15 L18,13.5 L15,13.5 Z M8.6015625,6.7640625 C9.185625,6.7640625 9.4021875,7.04296875 9.421875,7.453125 L10.1470313,7.453125 C10.1240625,6.88875 9.77953125,6.3703125 9.09375,6.20296875 L9.09375,5.484375 L8.109375,5.484375 L8.109375,6.193125 C7.93546875,6.2325 7.77140625,6.2915625 7.62375,6.3703125 L8.10609375,6.85265625 C8.240625,6.796875 8.4046875,6.7640625 8.6015625,6.7640625 Z M6.24890625,5.8321875 L5.8321875,6.24890625 L6.9609375,7.37765625 C6.9609375,8.06015625 7.4728125,8.4309375 8.24390625,8.660625 L9.395625,9.81234375 C9.2840625,9.96984375 9.05109375,10.1109375 8.6015625,10.1109375 C7.925625,10.1109375 7.65984375,9.8090625 7.62375,9.421875 L6.901875,9.421875 C6.94125,10.1404688 7.479375,10.5440625 8.109375,10.6785938 L8.109375,11.390625 L9.09375,11.390625 L9.09375,10.6851563 C9.40875,10.6260938 9.6909375,10.5046875 9.89765625,10.3176563 L10.6260937,11.0460938 L11.0428125,10.629375 L6.24890625,5.8321875 Z M3,4.5 L15,4.5 L15,12 L3,12 L3,4.5 Z" id="Shape" fill="#FFFFFF" fill-rule="nonzero"></path>
                </g>
            </g>
        </g>
    </g>
</svg>