<?xml version="1.0" encoding="UTF-8"?>
<svg width="40px" height="40px" viewBox="0 0 40 40" version="1.1" xmlns="http://www.w3.org/2000/svg" xmlns:xlink="http://www.w3.org/1999/xlink">
    <!-- Generator: Sketch 47 (45396) - http://www.bohemiancoding.com/sketch -->
    <title>user icon</title>
    <desc>Created with Sketch.</desc>
    <defs></defs>
    <g id="Symbols" stroke="none" stroke-width="1" fill="none" fill-rule="evenodd">
        <g id="user-Notification-big" transform="translate(-25.000000, 0.000000)">
            <g id="user-Notification">
                <g id="Group-5">
                    <g id="user-Notification" transform="translate(25.000000, 0.000000)">
                        <g id="user-icon">
                            <circle id="Oval-4" fill="#4A90E2" cx="20" cy="20" r="20"></circle>
                            <g id="ic_person_add" transform="translate(10.400000, 12.800000)" fill="#FFFFFF">
                                <g id="Icon-24px" transform="translate(0.800000, 0.800000)">
                                    <path d="M11.2,6.4 C12.968,6.4 14.4,4.968 14.4,3.2 C14.4,1.432 12.968,0 11.2,0 C9.432,0 8,1.432 8,3.2 C8,4.968 9.432,6.4 11.2,6.4 L11.2,6.4 Z M4,4.8 L4,2.4 L2.4,2.4 L2.4,4.8 L0,4.8 L0,6.4 L2.4,6.4 L2.4,8.8 L4,8.8 L4,6.4 L6.4,6.4 L6.4,4.8 L4,4.8 L4,4.8 Z M11.2,8 C9.064,8 4.8,9.072 4.8,11.2 L4.8,12.8 L17.6,12.8 L17.6,11.2 C17.6,9.072 13.336,8 11.2,8 L11.2,8 Z" id="Shape"></path>
                                </g>
                            </g>
                        </g>
                    </g>
                </g>
            </g>
        </g>
    </g>
</svg>