<svg width="336" height="174" viewBox="0 0 336 174" fill="none" xmlns="http://www.w3.org/2000/svg">
<rect width="336" height="174" fill="#4277C2"/>
<path d="M43.3 0L0 25V75L43.3 100L86.6 75V25L43.3 0ZM85.49 73.53L84.99 74.4L85.32 74.59L43.8 98.59V50.62L43.92 50.68L44.12 50.33L85.6 26.38V73.6L85.49 73.53ZM1.11 73.53L1 73.6V26.15L42.29 50L42.69 50.69L42.8 50.63V98.56L1.28 74.56L1.61 74.37L1.11 73.53ZM43.8 2V1.44L85.3 25.44L43.8 49.44V49H42.8V49.13L1.5 25.29L42.8 1.44V2H43.8Z" transform="translate(124 37)" fill="#1EB1FC"/>
<path d="M0.999999 0H0V2.04H0.999999V0Z" transform="translate(166.8 77.8301)" fill="#1EB1FC"/>
<path d="M0.999999 0H0V2.04H0.999999V0Z" transform="translate(166.8 69.6504)" fill="#1EB1FC"/>
<path d="M0.999999 0H0V2.04H0.999999V0Z" transform="translate(166.8 73.7402)" fill="#1EB1FC"/>
<path d="M0.999999 0H0V2.04H0.999999V0Z" transform="translate(166.8 81.9102)" fill="#1EB1FC"/>
<path d="M0.999999 0H0V2.04H0.999999V0Z" transform="translate(166.8 41.0391)" fill="#1EB1FC"/>
<path d="M0.999999 0H0V2.04H0.999999V0Z" transform="translate(166.8 49.2207)" fill="#1EB1FC"/>
<path d="M0.999999 0H0V2.04H0.999999V0Z" transform="translate(166.8 53.3008)" fill="#1EB1FC"/>
<path d="M0.999999 0H0V2.04H0.999999V0Z" transform="translate(166.8 45.1309)" fill="#1EB1FC"/>
<path d="M0.999999 0H0V2.04H0.999999V0Z" transform="translate(166.8 61.4805)" fill="#1EB1FC"/>
<path d="M0.999999 0H0V2.04H0.999999V0Z" transform="translate(166.8 65.5703)" fill="#1EB1FC"/>
<path d="M0.999999 0H0V2.04H0.999999V0Z" transform="translate(166.8 57.3906)" fill="#1EB1FC"/>
<path d="M2.06 0H0V1H2.06V0Z" transform="translate(151.891 95.0625) rotate(-29.99)" fill="#1EB1FC"/>
<path d="M2.06 0H0V0.999999H2.06V0Z" transform="translate(162.617 88.8828) rotate(-29.99)" fill="#1EB1FC"/>
<path d="M2.06 0H0V1H2.06V0Z" transform="translate(159.036 90.9453) rotate(-29.99)" fill="#1EB1FC"/>
<path d="M2.06 0H0V0.999999H2.06V0Z" transform="translate(148.324 97.1309) rotate(-29.99)" fill="#1EB1FC"/>
<path d="M2.06 0H0V0.999998H2.06V0Z" transform="translate(155.463 93.0039) rotate(-29.99)" fill="#1EB1FC"/>
<path d="M2.06 0H0V1H2.06V0Z" transform="translate(130.468 107.447) rotate(-29.99)" fill="#1EB1FC"/>
<path d="M2.06 0H0V0.999998H2.06V0Z" transform="translate(126.896 109.506) rotate(-29.9901)" fill="#1EB1FC"/>
<path d="M2.06 0H0V1H2.06V0Z" transform="translate(134.036 105.381) rotate(-29.99)" fill="#1EB1FC"/>
<path d="M2.06 0H0V1H2.06V0Z" transform="translate(144.751 99.1895) rotate(-29.9899)" fill="#1EB1FC"/>
<path d="M2.06 3.35693e-06H0V1H2.06V3.35693e-06Z" transform="translate(137.608 103.322) rotate(-29.9901)" fill="#1EB1FC"/>
<path d="M2.06 0H0V0.999998H2.06V0Z" transform="translate(141.17 101.264) rotate(-29.9899)" fill="#1EB1FC"/>
<path d="M1 0H0V2.06H1V0Z" transform="translate(176.851 92.8418) rotate(-60)" fill="#1EB1FC"/>
<path d="M1 0H0V2.06H1V0Z" transform="translate(183.992 96.9766) rotate(-59.99)" fill="#1EB1FC"/>
<path d="M1 0H0V2.06H1V0Z" transform="translate(180.42 94.9004) rotate(-60)" fill="#1EB1FC"/>
<path d="M0.999998 0H0V2.06H0.999998V0Z" transform="translate(169.713 88.7148) rotate(-60)" fill="#1EB1FC"/>
<path d="M0.999998 0H0V2.06H0.999998V0Z" transform="translate(173.282 90.7832) rotate(-60)" fill="#1EB1FC"/>
<path d="M0.999999 0H0V2.06H0.999999V0Z" transform="translate(187.572 99.0234) rotate(-60)" fill="#1EB1FC"/>
<path d="M0.999999 0H0V2.06H0.999999V0Z" transform="translate(191.136 101.086) rotate(-60.01)" fill="#1EB1FC"/>
<path d="M1 0H0V2.06H1V0Z" transform="translate(205.431 109.33) rotate(-59.9999)" fill="#1EB1FC"/>
<path d="M0.999998 0H-2.13623e-06V2.06H0.999998V0Z" transform="translate(201.856 107.281) rotate(-59.9999)" fill="#1EB1FC"/>
<path d="M0.999998 -3.05176e-06H0V2.06H0.999998V-3.05176e-06Z" transform="translate(194.71 103.148) rotate(-60)" fill="#1EB1FC"/>
<path d="M0.999998 2.13623e-06H0V2.06H0.999998V2.13623e-06Z" transform="translate(198.274 105.215) rotate(-59.99)" fill="#1EB1FC"/>
</svg>
