<?xml version="1.0" encoding="UTF-8"?>
<svg width="54px" height="54px" viewBox="0 0 54 54" version="1.1" xmlns="http://www.w3.org/2000/svg" xmlns:xlink="http://www.w3.org/1999/xlink">
    <!-- Generator: Sketch 46.2 (44496) - http://www.bohemiancoding.com/sketch -->
    <title>Icons / Product Image</title>
    <desc>Created with Sketch.</desc>
    <defs></defs>
    <g id="Symbols" stroke="none" stroke-width="1" fill="none" fill-rule="evenodd">
        <g id="Icons-/-Product-Image">
            <g id="Group">
                <circle id="Mask" fill="#E7EFF7" cx="27" cy="27" r="27"></circle>
                <g id="np_product_676479_000000" transform="translate(11.000000, 12.000000)" fill-rule="nonzero" fill="#FFFFFF">
                    <path d="M31.9999319,5.96003259 C31.9999319,5.19238148 31.4972195,4.51575634 30.7621597,4.29426099 L16.9809614,0.144701538 C16.3410319,-0.0482338461 15.6589459,-0.0482338461 15.0190163,0.144701538 L9.00824205,1.95311642 L9.00824205,9.92875752 L5.83704645,10.5238523 L5.83704645,2.90716727 L1.22418329,4.29846968 C0.495906044,4.52401372 1.10800814e-05,5.19791191 1.10800814e-05,5.96013694 L1.10800814e-05,24.8227194 C-0.00270613354,25.586301 0.494584306,26.2629261 1.22418329,26.488491 L15.0189467,30.6380505 C15.6588763,30.8309859 16.3409623,30.8309859 16.9808918,30.6380505 L30.7756553,26.488491 C31.5052891,26.262947 32.0025405,25.586301 31.9998275,24.8227194 L31.9999319,5.96003259 Z M28.5216758,23.5321821 L17.7390821,26.7780906 L17.7390821,4.00629618 L28.5216758,7.25491775 L28.5216758,23.5321821 Z M19.3842972,14.1694125 C19.3598405,14.055284 19.3598405,13.9357154 19.3842972,13.8215869 C19.4087535,13.7183244 19.4576675,13.6232185 19.5269614,13.5430551 C19.5908187,13.4683283 19.6804951,13.4194135 19.776961,13.4044675 L22.1139317,13.0566419 L23.0840521,10.4031151 L23.0854107,10.4017565 C23.101715,10.3542018 23.1248124,10.3080071 23.1547045,10.2672454 C23.1791611,10.2319202 23.2104122,10.2006681 23.2443774,10.1762125 C23.2756275,10.1544734 23.3095947,10.1368108 23.3462799,10.1273012 C23.381605,10.1205079 23.4182902,10.1205079 23.4536154,10.1273012 C23.4916571,10.132736 23.5283422,10.1449642 23.5609509,10.1626264 C23.598996,10.1816479 23.6329612,10.2061046 23.6628533,10.2359967 C23.695462,10.2686054 23.7253541,10.3052906 23.7498097,10.3460522 C23.7769836,10.393607 23.798721,10.4438782 23.815027,10.4968659 L24.7117562,13.1925144 L26.5867449,13.6789137 L26.5881035,13.6789137 C26.6614739,13.6992942 26.7253312,13.7468475 26.7688094,13.8107083 C26.8177206,13.8827186 26.8530493,13.964242 26.8693519,14.0511984 C26.8856562,14.1449478 26.8856562,14.2414173 26.8693519,14.3365232 C26.8571237,14.4289127 26.8231571,14.5185891 26.7715259,14.5973924 L25.4467973,16.5620506 L25.7674508,19.3446554 L25.7660922,19.3446554 C25.7796793,19.4275353 25.7796793,19.5117752 25.7660922,19.594655 C25.7525051,19.6693819 25.7266905,19.7413957 25.6900053,19.8079695 C25.6587553,19.8663938 25.616635,19.918025 25.5650037,19.9601432 C25.5215255,19.9981884 25.4685378,20.021284 25.41147,20.0294371 L25.3014145,20.0294371 L25.2565764,20.0049804 L23.4685441,18.8256429 L21.5174511,20.4424754 L21.4658199,20.4805206 L21.4141886,20.5076945 L21.3625574,20.528075 L21.3109262,20.528075 L21.308209,20.5307922 C21.2429917,20.5375856 21.1777744,20.5253574 21.1193501,20.4968249 C21.0582093,20.4642163 21.0065781,20.4180216 20.9671764,20.3609573 C20.9196217,20.29438 20.887013,20.2196531 20.8693504,20.1408498 C20.8530461,20.0498169 20.8530461,19.9547074 20.8693504,19.8636745 L21.2687934,16.7332441 L19.5296653,14.5172124 C19.450862,14.4166699 19.3992307,14.2957448 19.3842847,14.1693868 L19.3842972,14.1694125 Z" id="Shape"></path>
                </g>
            </g>
        </g>
    </g>
</svg>