<?xml version="1.0" encoding="UTF-8"?>
<svg width="44px" height="40px" viewBox="0 0 44 40" version="1.1" xmlns="http://www.w3.org/2000/svg" xmlns:xlink="http://www.w3.org/1999/xlink">
    <!-- Generator: Sketch 42 (36781) - http://www.bohemiancoding.com/sketch -->
    <title>ic_desktop_windows</title>
    <desc>Created with Sketch.</desc>
    <defs></defs>
    <g id="Page-1" stroke="none" stroke-width="1" fill="none" fill-rule="evenodd">
        <g id="Search-V3-Boxes-Copy-2" transform="translate(-386.000000, -245.000000)">
            <g id="ic_desktop_windows" transform="translate(384.000000, 241.000000)">
                <g id="Icon-24px">
                    <polygon id="Shape" points="0 0 48 0 48 48 0 48"></polygon>
                    <path d="M42,4 L6,4 C3.8,4 2,5.8 2,8 L2,32 C2,34.2 3.8,36 6,36 L20,36 L20,40 L16,40 L16,44 L32,44 L32,40 L28,40 L28,36 L42,36 C44.2,36 46,34.2 46,32 L46,8 C46,5.8 44.2,4 42,4 L42,4 Z M42,32 L6,32 L6,8 L42,8 L42,32 L42,32 Z" id="Shape" fill="#fff"></path>
                    <path d="M23.9667155,10.8000488 C18.9067155,10.8000488 14.8000488,14.9067155 14.8000488,19.9667155 C14.8000488,25.0267155 18.9067155,29.1333822 23.9667155,29.1333822 C29.0267155,29.1333822 33.1333822,25.0267155 33.1333822,19.9667155 C33.1333822,14.9067155 29.0267155,10.8000488 23.9667155,10.8000488 L23.9667155,10.8000488 Z M23.9667155,13.5500488 C25.4883822,13.5500488 26.7167155,14.7783822 26.7167155,16.3000488 C26.7167155,17.8217155 25.4883822,19.0500488 23.9667155,19.0500488 C22.4450488,19.0500488 21.2167155,17.8217155 21.2167155,16.3000488 C21.2167155,14.7783822 22.4450488,13.5500488 23.9667155,13.5500488 L23.9667155,13.5500488 Z M23.9667155,26.5667155 C21.6750488,26.5667155 19.6492155,25.3933822 18.4667155,23.6150488 C18.4942155,21.7908822 22.1333822,20.7917155 23.9667155,20.7917155 C25.7908822,20.7917155 29.4392155,21.7908822 29.4667155,23.6150488 C28.2842155,25.3933822 26.2583822,26.5667155 23.9667155,26.5667155 L23.9667155,26.5667155 Z" id="Shape" fill="#fff"></path>
                </g>
            </g>
        </g>
    </g>
</svg>
