<?xml version="1.0" encoding="UTF-8"?>
<svg width="142px" height="141px" viewBox="0 0 142 141" version="1.1" xmlns="http://www.w3.org/2000/svg" xmlns:xlink="http://www.w3.org/1999/xlink">
    <!-- Generator: Sketch 45 (43475) - http://www.bohemiancoding.com/sketch -->
    <title>sixlogo-circles</title>
    <desc>Created with Sketch.</desc>
    <defs></defs>
    <g id="Page-1" stroke="none" stroke-width="1" fill="none" fill-rule="evenodd">
        <g id="iPhone-7-signup-step-2" transform="translate(-116.000000, -66.000000)">
            <g id="ErrorBackground" transform="translate(-23.000000, -46.000000)">
                <g id="sixlogo-circles" transform="translate(140.000000, 112.500000)">
                    <circle id="oval" stroke="#FFFFFF" stroke-width="0.7" opacity="0.3" cx="70" cy="70" r="70"></circle>
                    <circle id="oval" stroke="#FFFFFF" stroke-width="0.7" opacity="0.5" cx="70.35" cy="70.35" r="61.25"></circle>
                    <circle id="oval" stroke="#FFFFFF" stroke-width="0.7" cx="70" cy="70" r="52.5"></circle>
                    <path d="M99.6988687,40.1847315 C92.6496218,33.1055003 83.3056945,28.7838399 73.354076,28 L73.354076,28 L51.5454727,49.8435539 C41.8794381,58.7660382 39.9249219,73.3170354 46.8929085,84.4809987 C53.8608951,95.644962 67.7769838,100.258547 80.0190062,95.4632571 C92.2610285,90.6679668 99.3601691,77.8225612 96.9179229,64.885832 C94.4756768,51.9491029 83.184062,42.5867128 70.0391683,42.5994371 L68.2310368,42.5994371 L75.7807787,35.0375959 C91.8125691,37.7174819 103.938104,51.0268479 105.138855,67.2619371 C106.339606,83.4970264 96.304409,98.4506627 80.8418589,103.467349 C65.3793088,108.484036 48.4963854,102.263744 39.9652997,88.4069166 C31.434214,74.5500891 33.4657195,56.6475975 44.8839357,45.0618014 L61.0619541,28.8260835 C42.3075625,32.9172264 28.7084817,49.2224574 28.0267531,68.4351271 C27.3450244,87.6477967 39.7541279,104.878844 58.1712336,110.293185 C76.5883394,115.707525 96.3268341,107.927369 106.120441,91.3934487 C115.914047,74.8595285 113.27058,53.7792426 99.6988687,40.1847315 L99.6988687,40.1847315 Z M70.0391683,49.3351949 C79.8671219,49.3242249 88.3367827,56.2623383 90.2758709,65.9125458 C92.2149591,75.5627533 87.084433,85.24242 78.0174186,89.040336 C68.9504043,92.838252 58.4674163,89.6986449 52.9702395,81.5388202 C47.4730626,73.3789954 48.4898421,62.4672804 55.3996477,55.4672762 L55.3996477,55.4672762 L56.2402702,54.6253065 C60.0311446,51.2093656 64.9558533,49.3292007 70.0550291,49.3510811 L70.0391683,49.3351949 Z" id="Shape" fill="#FFFFFF" fill-rule="nonzero"></path>
                </g>
            </g>
        </g>
    </g>
</svg>