<?xml version="1.0" encoding="UTF-8"?>
<svg width="90px" height="90px" viewBox="0 0 90 90" version="1.1" xmlns="http://www.w3.org/2000/svg" xmlns:xlink="http://www.w3.org/1999/xlink">
    <!-- Generator: Sketch 42 (36781) - http://www.bohemiancoding.com/sketch -->
    <title>sleepingHamster</title>
    <desc>Created with Sketch.</desc>
    <defs></defs>
    <g id="Page-1" stroke="none" stroke-width="1" fill="none" fill-rule="evenodd">
        <g id="Admin-Panel-WHITE-Copy" transform="translate(-489.000000, -206.000000)">
            <g id="Group" transform="translate(441.000000, 206.000000)">
                <g id="sleepingHamster" transform="translate(48.000000, 0.000000)">
                    <g id="hamster">
                        <g id="front-leg" transform="translate(46.173913, 71.217391)">
                            <path d="M0.544070534,1.28388034 C0.646924216,1.27985241 2.046655,1.3818931 6.13439225,0.0548759473 L4.12311213,3.79156681 C4.12311213,3.79156681 3.18785839,5.09453849 1.58217795,4.53612206 C-0.0236236371,3.97782768 0.193834971,2.38228241 0.193834971,2.38228241 C0.193834971,2.38228241 0.441216853,1.2877862 0.544070534,1.28388034 Z" id="Fill-4" fill="#FFFFFF"></path>
                            <path d="M0.544070534,1.28388034 C0.646924216,1.27985241 2.046655,1.3818931 6.13439225,0.0548759473 L4.12311213,3.79156681 C4.12311213,3.79156681 3.18785839,5.09453849 1.58217795,4.53612206 C-0.0236236371,3.97782768 0.193834971,2.38228241 0.193834971,2.38228241 C0.193834971,2.38228241 0.441216853,1.2877862 0.544070534,1.28388034 Z" id="Stroke-5" stroke="#4A90E2" stroke-linecap="round" stroke-linejoin="round"></path>
                        </g>
                        <g id="backleg" transform="translate(30.884188, 70.083872) rotate(-40.000000) translate(-30.884188, -70.083872) translate(28.884188, 67.583872)">
                            <path d="M2.39119666,0.162150778 C2.39119666,0.162150778 2.55377574,2.64420503 3.97725131,4.0775349 L2.61422803,4.89117511 C2.61422803,4.89117511 1.01303002,5.52343678 0.298384709,3.70086318 C-0.4162606,1.87816753 1.11176471,0.844090148 1.11176471,0.844090148 L2.39119666,0.162150778 Z" id="Fill-6" fill="#FFFFFF"></path>
                            <path d="M2.39119666,0.162150778 C2.39119666,0.162150778 2.55377574,2.64420503 3.97725131,4.0775349 L2.61422803,4.89117511 C2.61422803,4.89117511 1.01303002,5.52343678 0.298384709,3.70086318 C-0.4162606,1.87816753 1.11176471,0.844090148 1.11176471,0.844090148 L2.39119666,0.162150778 Z" id="Stroke-7" stroke="#4A90E2" stroke-linecap="round" stroke-linejoin="round"></path>
                        </g>
                        <path d="M76.5435189,13.3328515 C69.0564306,5.81391643 59.1321351,1.22382998 48.5624037,0.391304348 L48.5624037,0.391304348 L25.3992287,23.5916008 C15.1328193,33.0682766 13.0569046,48.5230625 20.4576854,60.3804396 C27.8584663,72.2378168 42.6389083,77.1379604 55.6413047,72.0448259 C68.6437011,66.9516915 76.1837821,53.3084346 73.5898436,39.5681819 C70.9959052,25.8279291 59.0029479,15.8840241 45.0416011,15.8975388 L43.1211633,15.8975388 L51.1398333,7.86601803 C68.167387,10.7123566 81.046061,24.8483912 82.3213927,42.0918711 C83.5967244,59.335351 72.9382232,75.2177846 56.5152663,80.5460666 C40.0923094,85.8743487 22.1607572,79.2677032 13.0997904,64.5502033 C4.03882352,49.8327034 6.19650948,30.8182557 18.3239317,18.512845 L35.506796,1.26869738 C15.5875354,5.61394857 1.14379115,22.9319269 0.419719095,43.33793 C-0.304352957,63.7439331 12.8755023,82.0452317 32.4365276,87.795867 C51.997553,93.5465022 72.9620412,85.2831061 83.3639463,67.7222343 C93.7658513,50.1613626 90.9581934,27.7717421 76.5435189,13.3328515 L76.5435189,13.3328515 Z M45.0416011,23.0516666 C55.4799866,23.0400152 64.4757133,30.4090674 66.5352418,40.6586667 C68.5947702,50.9082659 63.1455779,61.1891542 53.5153949,65.2229656 C43.885212,69.2567769 32.7511068,65.9221632 26.9124904,57.2555171 C21.073874,48.5888709 22.1538074,36.9994096 29.4927935,29.5646225 L29.4927935,29.5646225 L30.3856286,28.6703565 C34.4119611,25.0422454 39.6425523,23.0453002 45.058447,23.0685395 L45.0416011,23.0516666 Z" id="logo" fill="#4990E2" fill-rule="nonzero"></path>
                        <path d="M50.4213218,50.9097798 C50.4213218,50.9097798 54.1561583,47.1072996 64.8845605,51.4882138 C64.8845605,51.4882138 66.0880334,59.3306996 57.2410419,61.8210538 C57.2410419,61.8210538 56.0992327,62.125345 55.7695921,63.0778875 L55.041863,64.6224124 L57.7125454,63.9365672 C57.7125454,63.9365672 59.7521739,63.5207148 60.2240409,65.3255899 C60.6960291,67.1304651 59.4752322,67.943373 58.7775474,68.1591719 L50.140988,70.5584707 C50.140988,70.5584707 47.0751245,71.4383885 45.2437475,71.420568 C43.4122493,71.4027475 40.5014538,71.2792246 38.9493202,70.3780686 L40.4915197,72.1278955 C40.4915197,72.1278955 42.1301521,73.9394838 40.3364517,75.3719593 C38.5427514,76.8044348 36.7051959,74.5380574 36.7051959,74.5380574 L31.0778032,68.1673498 C31.0778032,68.1673498 28.5831471,65.8720447 29.1481761,62.2622944 C29.1481761,62.2622944 28.5380805,61.8753698 28.6468704,61.024868 C28.7557814,60.1742441 29.8891102,56.9835197 33.8554583,55.6893363 C33.8554583,55.6893363 35.9015076,55.0844156 37.4392247,55.2460207 C38.9770629,55.4075038 41.2117378,55.7755094 42.5496837,55.8535046 C44.0214968,55.9393115 46.9256293,56.1753722 47.8618522,55.410067 C47.8618522,55.410067 46.136721,54.6484236 45.826585,54.3953969 C45.1662135,53.8566318 45.1186028,53.6999091 45.2494414,52.9873331 C45.3820972,52.2645042 45.6505586,51.6485983 47.2613272,51.3912996 C48.6966752,51.1620742 49.6808723,51.4547698 49.6808723,51.4547698 L50.4213218,50.9097798 Z" id="Fill-1" fill="#FFFFFF"></path>
                        <path d="M50.4213218,50.9097798 C50.4213218,50.9097798 54.1561583,47.1072996 64.8845605,51.4882138 C64.8845605,51.4882138 66.0880334,59.3306996 57.2410419,61.8210538 C57.2410419,61.8210538 56.0992327,62.125345 55.7695921,63.0778875 L55.041863,64.6224124 L57.7125454,63.9365672 C57.7125454,63.9365672 59.7521739,63.5207148 60.2240409,65.3255899 C60.6960291,67.1304651 59.4752322,67.943373 58.7775474,68.1591719 L50.140988,70.5584707 C50.140988,70.5584707 47.0751245,71.4383885 45.2437475,71.420568 C43.4122493,71.4027475 40.5014538,71.2792246 38.9493202,70.3780686 L40.4915197,72.1278955 C40.4915197,72.1278955 42.1301521,73.9394838 40.3364517,75.3719593 C38.5427514,76.8044348 36.7051959,74.5380574 36.7051959,74.5380574 L31.0778032,68.1673498 C31.0778032,68.1673498 28.5831471,65.8720447 29.1481761,62.2622944 C29.1481761,62.2622944 28.5380805,61.8753698 28.6468704,61.024868 C28.7557814,60.1742441 29.8891102,56.9835197 33.8554583,55.6893363 C33.8554583,55.6893363 35.9015076,55.0844156 37.4392247,55.2460207 C38.9770629,55.4075038 41.2117378,55.7755094 42.5496837,55.8535046 C44.0214968,55.9393115 46.9256293,56.1753722 47.8618522,55.410067 C47.8618522,55.410067 46.136721,54.6484236 45.826585,54.3953969 C45.1662135,53.8566318 45.1186028,53.6999091 45.2494414,52.9873331 C45.3820972,52.2645042 45.6505586,51.6485983 47.2613272,51.3912996 C48.6966752,51.1620742 49.6808723,51.4547698 49.6808723,51.4547698 L50.4213218,50.9097798 Z" id="Stroke-3" stroke="#4A90E2" stroke-linecap="round" stroke-linejoin="round"></path>
                        <path d="M59.8770763,53.519629 C59.8770763,53.519629 59.2038632,55.1820622 56.8877776,53.6762298" id="Stroke-8" stroke="#4A90E2" stroke-width="1.5" stroke-linecap="round" stroke-linejoin="round"></path>
                    </g>
                </g>
            </g>
        </g>
    </g>
</svg>