<?xml version="1.0" encoding="UTF-8"?>
<svg width="40px" height="22px" viewBox="0 0 40 22" version="1.1" xmlns="http://www.w3.org/2000/svg" xmlns:xlink="http://www.w3.org/1999/xlink">
    <!-- Generator: Sketch 43.2 (39069) - http://www.bohemiancoding.com/sketch -->
    <title>timeline</title>
    <desc>Created with Sketch.</desc>
    <defs></defs>
    <g id="Page-1" stroke="none" stroke-width="1" fill="none" fill-rule="evenodd" fill-opacity="0.54">
        <g id="Dashboard-Desktop-No-Filtering-Copy" transform="translate(-901.000000, -309.000000)" fill="#000000">
            <g id="Group-2" transform="translate(215.000000, 88.000000)">
                <g id="Upsells" transform="translate(574.000000, 189.000000)">
                    <g id="timeline" transform="translate(112.000000, 32.000000)">
                        <path d="M40.0033328,3.63666662 C40.0033328,5.63683325 38.3668328,7.27333323 36.3666662,7.27333323 C36.0528806,7.27822499 35.7401796,7.23530526 35.4393162,7.1460499 L28.9660496,13.6011331 C29.0569663,13.8920665 29.0933329,14.2193665 29.0933329,14.5466665 C29.0933329,16.5468331 27.4568329,18.1833331 25.4566663,18.1833331 C23.4564997,18.1833331 21.8199997,16.5468331 21.8199997,14.5466665 C21.8199997,14.2193665 21.8563664,13.8920665 21.947283,13.6011331 L17.3105331,8.96438321 C17.0195998,9.05529987 16.6922998,9.09166654 16.3649998,9.09166654 C16.0376998,9.09166654 15.7103998,9.05529987 15.4194665,8.96438321 L7.1460499,17.2559831 C7.23696657,17.5469164 7.27333323,17.8560331 7.27333323,18.1833331 C7.27333323,20.1834997 5.63683325,21.8199997 3.63666662,21.8199997 C1.63649998,21.8199997 -3.55271368e-15,20.1834997 -3.55271368e-15,18.1833331 C-3.55271368e-15,16.1831664 1.63649998,14.5466665 3.63666662,14.5466665 C3.96396661,14.5466665 4.27308327,14.5830331 4.5640166,14.6739498 L12.8556165,6.40053324 C12.7646998,6.10959991 12.7283332,5.78229992 12.7283332,5.45499992 C12.7283332,3.45483329 14.3648331,1.81833331 16.3649998,1.81833331 C18.3651664,1.81833331 20.0016664,3.45483329 20.0016664,5.45499992 C20.0016664,5.78229992 19.9652997,6.10959991 19.8743831,6.40053324 L24.511133,11.0372832 C24.8020663,10.9463665 25.1293663,10.9099998 25.4566663,10.9099998 C25.7839663,10.9099998 26.1112663,10.9463665 26.4021996,11.0372832 L32.8572829,4.5640166 C32.7680275,4.26315316 32.7251078,3.95045222 32.7299995,3.63666662 C32.7299995,1.63649998 34.3664995,-1.77635684e-15 36.3666662,-1.77635684e-15 C38.3668328,-1.77635684e-15 40.0033328,1.63649998 40.0033328,3.63666662 L40.0033328,3.63666662 Z" id="Shape"></path>
                    </g>
                </g>
            </g>
        </g>
    </g>
</svg>