<?xml version="1.0" encoding="UTF-8"?>
<svg width="40px" height="40px" viewBox="0 0 40 40" version="1.1" xmlns="http://www.w3.org/2000/svg" xmlns:xlink="http://www.w3.org/1999/xlink">
    <!-- Generator: Sketch 47 (45396) - http://www.bohemiancoding.com/sketch -->
    <title>user icon copy</title>
    <desc>Created with Sketch.</desc>
    <defs></defs>
    <g id="Dashboard" stroke="none" stroke-width="1" fill="none" fill-rule="evenodd">
        <g id="Notifications" transform="translate(-184.000000, -486.000000)">
            <g id="user-icon-copy" transform="translate(184.000000, 486.000000)">
                <circle id="Oval-4" fill="#4A90E2" cx="20" cy="20" r="20"></circle>
                <g id="ic_person_add" transform="translate(13.400000, 13.800000)" fill="#FFFFFF">
                    <g id="Icon-24px">
                        <path d="M6.2,6.4 C7.968,6.4 9.4,4.968 9.4,3.2 C9.4,1.432 7.968,0 6.2,0 C4.432,0 3,1.432 3,3.2 C3,4.968 4.432,6.4 6.2,6.4 L6.2,6.4 Z M6.4,8 C4.264,8 -3.62376795e-13,9.072 -3.62376795e-13,11.2 L-3.62376795e-13,12.8 L12.8,12.8 L12.8,11.2 C12.8,9.072 8.536,8 6.4,8 L6.4,8 Z" id="Shape"></path>
                    </g>
                </g>
            </g>
        </g>
    </g>
</svg>