<?xml version="1.0" encoding="UTF-8"?>
<svg width="54px" height="54px" viewBox="0 0 54 54" version="1.1" xmlns="http://www.w3.org/2000/svg" xmlns:xlink="http://www.w3.org/1999/xlink">
    <!-- Generator: Sketch 46.2 (44496) - http://www.bohemiancoding.com/sketch -->
    <title>Icons / Avatar</title>
    <desc>Created with Sketch.</desc>
    <defs></defs>
    <g id="Symbols" stroke="none" stroke-width="1" fill="none" fill-rule="evenodd">
        <g id="Icons-/-Avatar">
            <g id="Group" fill="#E7EFF7">
                <circle id="Mask" cx="27" cy="27" r="27"></circle>
            </g>
            <path d="M40.3902114,31.0000134 C36.860522,30.0261564 35.8867866,26.1305258 36.2508226,25.0347694 C37.3466194,20.8953806 37.3466194,14.8081156 36.1288908,12.6182245 C33.6934173,8.23519913 30.4076887,10.9143497 30.4076887,10.9143497 C27.7299164,7.26272044 20.6691188,9.69661297 18.8432636,11.1582133 C14.8258146,14.3237046 16.1654913,21.748903 17.0174489,25.280214 C17.3832443,26.4979507 16.1654913,30.0276807 13,31.123437 C16.6516293,32.3411738 20.0610003,33.4369707 22.374534,30.8795735 L23.1045518,31.3672925 C21.0348573,36.7244586 17.3833497,35.3847414 15.1914316,36.3583957 L13.2436771,37.8200122 C21.2784128,44.6369707 33.3309218,44.2713132 41,37.0899945 C35.034756,35.3861197 31.625466,36.1161375 30.1652683,31.3687924 L30.8952861,30.8810734 C31.2610814,31.4891513 33.3307596,32.22075 33.3307596,32.22075 C36.374311,33.194607 40.39176,31.0030133 40.39176,31.0030133 L40.3902114,31.0000134 Z" id="Shape" fill="#FFFFFF" fill-rule="nonzero"></path>
        </g>
    </g>
</svg>