<svg width="126" height="79" viewBox="0 0 126 79" version="1.1" xmlns="http://www.w3.org/2000/svg" xmlns:xlink="http://www.w3.org/1999/xlink">
<g id="Canvas" fill="none">
<g id="Group">
<g id="Vector">
<path d="M 125.5 74.2C 125.5 76.5 123.6 78.4 121.3 78.4L 4.2 78.4C 1.9 78.4 4.88281e-05 76.5 4.88281e-05 74.2L 4.88281e-05 4.20001C 4.88281e-05 1.90001 1.9 0 4.2 0L 121.3 0C 123.6 0 125.5 1.90001 125.5 4.20001L 125.5 74.2Z" transform="translate(0 0.327148)" fill="#A2A2A2"/>
</g>
<g id="Group_2">
<g id="Vector_2">
<path d="M 25.4 16.5L 25.4 15.2L 24.8 16.5L 19.6 16.5L 18.9 15.2L 18.9 16.5L 9.19998 16.5L 8.1 13.8L 6.19998 13.8L 5.00002 16.5L 2.44141e-05 16.5L 2.44141e-05 8.29998L 3.69998 -1.2207e-05L 10.8 -1.2207e-05L 11.8 2.40001L 11.8 0.100024L 20.4 0.100024L 22.3 4.10002L 24.2 0.100024L 51.5 0.100024C 51.5 0.100024 52.9 0.1 53.9 0.7L 53.9 0.100024L 60.7999 0.100024L 60.7999 0.999988C 60.7999 0.999988 62 0.100024 63.9 0.100024C 65.8 0.100024 76 0.100024 76 0.100024L 77.1 2.49999L 77.1 0.100024L 84.9 0.100024L 86.2999 2.49999L 86.2999 0.100024L 93.7 0.100024L 93.7 16.7L 86.1 16.7L 84.2999 13.8L 84.2999 16.7L 74.7999 16.7L 73.5 13.7L 71.6 13.7L 70.4 16.7L 64.7 16.7C 64.7 16.7 62.6 16.7 61 15.5C 61 16.1 61 16.7 61 16.7L 49.6 16.7C 49.6 16.7 49.6 13.4 49.6 12.8C 49.6 12.2 49.2 12.3 49.2 12.3L 48.7999 12.3L 48.7999 16.7L 25.4 16.7L 25.4 16.5Z" transform="translate(13.6 21.127)" fill="white"/>
</g>
<g id="Vector_3">
<path d="M -2.44141e-05 2.44141e-05L 15 2.44141e-05L 17.2 2.50002L 19.4 2.44141e-05L 30.9 2.44141e-05C 30.9 2.44141e-05 32 0 33 0.6L 33 2.44141e-05C 33 2.44141e-05 42 2.44141e-05 43.3 2.44141e-05C 44.6 2.44141e-05 45.7001 0.699976 45.7001 0.699976L 45.7001 2.44141e-05L 58.9 2.44141e-05L 58.9 0.6C 58.9 0.6 59.8 2.44141e-05 61.1 2.44141e-05C 62.4 2.44141e-05 69.7001 2.44141e-05 69.7001 2.44141e-05L 69.7001 0.6C 69.7001 0.6 70.8 2.44141e-05 71.9 2.44141e-05C 73 2.44141e-05 78.7001 2.44141e-05 78.7001 2.44141e-05L 78.7001 15.6C 78.7001 15.6 77.8 16.6 76 16.6L 67.1 16.6L 67.1 16.1C 67.1 16.1 66.3 16.6 65 16.6C 63.7 16.6 41.3 16.6 41.3 16.6C 41.3 16.6 41.3 13 41.3 12.6C 41.3 12.2 41.1 12.1 40.8 12.1L 40.5 12.1L 40.5 16.6L 33.1 16.6L 33.1 12.1C 33.1 12.1 32.3 12.5 30.9 12.5C 29.5 12.5 28.2 12.5 28.2 12.5L 28.2 16.5L 19.1 16.5L 17 14L 14.8 16.5L -2.44141e-05 16.5L -2.44141e-05 2.44141e-05Z" transform="translate(33.2999 41.2266)" fill="white"/>
</g>
<g id="Vector_4">
<path d="M 2.44141e-05 2.44141e-05L 9.40005 2.44141e-05L 9.40005 2.50002L 2.90005 2.50002L 2.90005 4.69998L 9.19998 4.69998L 9.19998 7.00002L 2.90005 7.00002L 2.90005 9.30001L 9.40005 9.30001L 9.40005 11.8L 2.44141e-05 11.8L 2.44141e-05 2.44141e-05Z" transform="translate(80.6 43.7266)" fill="#A2A2A2"/>
</g>
<g id="Vector_5">
<path d="M 6.3 4.5C 9.8 4.7 10.1 6.49999 10.1 8.29999C 10.1 10.5 8.29998 11.7 6.39998 11.7L 0.3 11.7L 0.3 9.20001L 4.99995 9.20001C 5.79995 9.20001 6.99995 9.19998 6.99995 8.09998C 6.99995 7.59998 6.79998 7.19998 5.89998 7.09998C 5.49998 6.99998 4.09998 7 3.89998 7C 0.699975 6.9 -4.88281e-05 5.30002 -4.88281e-05 3.40002C -4.88281e-05 1.20002 1.49998 0 3.39998 0L 9.49995 0L 9.49995 2.5L 5.10005 2.5C 4.10005 2.5 2.99995 2.4 2.99995 3.5C 2.99995 4.2 3.50002 4.40002 4.20002 4.40002C 4.50002 4.40002 6.1 4.5 6.3 4.5Z" transform="translate(101.9 43.8271)" fill="#A2A2A2"/>
</g>
<g id="Vector_6">
<path d="M 6.29995 4.5C 9.79995 4.7 10.1 6.49999 10.1 8.29999C 10.1 10.5 8.30005 11.7 6.40005 11.7L 0.299951 11.7L 0.299951 9.20001L 5.00002 9.20001C 5.80002 9.20001 7.00002 9.19998 7.00002 8.09998C 7.00002 7.59998 6.80005 7.19998 5.90005 7.09998C 5.50005 6.99998 4.10005 7 3.90005 7C 0.700049 6.9 2.44141e-05 5.30002 2.44141e-05 3.40002C 2.44141e-05 1.20002 1.50005 0 3.40005 0L 9.50002 0L 9.50002 2.5L 5.1 2.5C 4.1 2.5 3.00002 2.4 3.00002 3.5C 3.00002 4.2 3.49998 4.40002 4.19998 4.40002C 4.49998 4.40002 6.09995 4.5 6.29995 4.5Z" transform="translate(91.1 43.8271)" fill="#A2A2A2"/>
</g>
<g id="Vector_7">
<path d="M 28 0.100024L 17.9 0.100024L 14.6 3.7L 11.4 -1.2207e-05L 0 -1.2207e-05L 0 11.7L 11 11.7L 14.5 7.79998L 17.9 11.7L 23.4 11.7L 23.4 7.7L 27.3 7.7C 28.8 7.7 31.5 7.59999 31.5 3.49999C 31.5 0.799988 29.4 0.100024 28 0.100024ZM 9.5 9.40001L 2.90002 9.40001L 2.90002 7.10002L 9.30005 7.10002L 9.30005 4.90001L 2.90002 4.90001L 2.90002 2.7L 9.90002 2.7L 12.7 5.90001L 9.5 9.40001ZM 20.5 10.8L 16.4 5.90001L 20.5 1.29998L 20.5 10.8ZM 27 5.49999L 23.4 5.49999L 23.4 2.7L 27 2.7C 28.2 2.7 28.6 3.49999 28.6 3.99999C 28.6 4.79999 28.2 5.49999 27 5.49999Z" transform="translate(35.2 43.627)" fill="#A2A2A2"/>
</g>
<g id="Vector_8">
<path d="M 9.00002 6.29999C 10.6 5.49999 11 4.49998 11 3.09998C 11 0.599976 9.00002 0 7.50002 0L 2.44141e-05 0L 2.44141e-05 11.7L 2.90005 11.7L 2.90005 7.5L 6.69998 7.5C 7.69998 7.5 8.1 8.5 8.1 9.5L 8.19998 11.7L 11 11.7L 10.9 9.29999C 10.9 7.39999 10.4 6.49999 9.00002 6.29999ZM 6.50002 5.09998L 2.90005 5.09998L 2.90005 2.5L 6.50002 2.5C 7.70002 2.5 8.1 3.29999 8.1 3.79999C 8.1 4.59999 7.70002 5.09998 6.50002 5.09998Z" transform="translate(68.1 43.8271)" fill="#A2A2A2"/>
</g>
<g id="Vector_9">
<path d="M 2.9 -2.44141e-05L -2.44141e-05 -2.44141e-05L -2.44141e-05 11.8L 2.9 11.8L 2.9 -2.44141e-05Z" transform="translate(69.2999 23.4268)" fill="#A2A2A2"/>
</g>
<g id="Vector_10">
<path d="M 0 1.2207e-05L 9.40002 1.2207e-05L 9.40002 2.50001L 2.90002 2.50001L 2.90002 4.70002L 9.30005 4.70002L 9.30005 6.89998L 2.90002 6.89998L 2.90002 9.20002L 9.40002 9.20002L 9.40002 11.7L 0 11.7L 0 1.2207e-05Z" transform="translate(45.7 23.5273)" fill="#A2A2A2"/>
</g>
<g id="Vector_11">
<path d="M 8.99998 6.29998C 10.6 5.49998 11 4.50002 11 3.10002C 11 0.600024 8.99998 -1.2207e-05 7.49998 -1.2207e-05L -2.44141e-05 -1.2207e-05L -2.44141e-05 11.7L 2.9 11.7L 2.9 7.60002L 6.70005 7.60002C 7.70005 7.60002 8.09995 8.60002 8.09995 9.60002L 8.20005 11.8L 11 11.8L 10.9 9.40001C 10.9 7.30001 10.4 6.39998 8.99998 6.29998ZM 6.49998 4.99999L 2.9 4.99999L 2.9 2.29998L 6.49998 2.29998C 7.69998 2.29998 8.09995 3.10002 8.09995 3.60002C 8.09995 4.50002 7.69998 4.99999 6.49998 4.99999Z" transform="translate(56.7999 23.627)" fill="#A2A2A2"/>
</g>
<g id="Vector_12">
<path d="M 25.4 1.2207e-05L 21.9 7.89998L 18.4 1.2207e-05L 13.9 1.2207e-05L 13.9 11.3L 8.90002 1.2207e-05L 5.09998 1.2207e-05L 0 11.7L 3 11.7L 4.09998 9.09999L 9.90002 9.09999L 11 11.7L 16.8 11.7L 16.8 3.00001L 20.7 11.7L 23.3 11.7L 27.2 3.09999L 27.2 11.7L 30.1 11.7L 30.1 1.2207e-05L 25.4 1.2207e-05ZM 5.09998 6.50001L 6.80005 2.39998L 8.59998 6.50001L 5.09998 6.50001Z" transform="translate(13.7 23.5273)" fill="#A2A2A2"/>
</g>
<g id="Vector_13">
<path d="M 28.4049 0.200012L 28.4049 8.29999L 23.505 0.200012L 19.205 0.200012L 19.205 11.2L 14.305 0.200012L 10.505 0.200012L 6.50504 9.29999C 6.50504 9.29999 4.80499 9.29999 4.70499 9.29999C 4.00499 9.19999 2.90494 8.69998 2.90494 6.59998L 2.90494 5.70001C 2.90494 2.90001 4.40496 2.70001 6.30496 2.70001L 8.10501 2.70001L 8.10501 0.0999756L 4.30496 0.0999756C 3.00496 0.0999756 0.105038 1.10002 0.00503777 5.90002C -0.0949622 9.10002 1.30504 11.8 4.50504 11.8L 8.30496 11.8L 9.40494 9.20001L 15.205 9.20001L 16.305 11.8L 22.005 11.8L 22.005 3.20001L 27.205 11.8L 31.105 11.8L 31.105 0L 28.4049 0L 28.4049 0.200012ZM 10.705 6.79999L 12.4049 2.70001L 14.205 6.79999L 10.705 6.79999Z" transform="translate(73.495 23.3271)" fill="#A2A2A2"/>
</g>
</g>
</g>
</g>
</svg>

