<svg width="126" height="79" viewBox="0 0 126 79" version="1.1" xmlns="http://www.w3.org/2000/svg" xmlns:xlink="http://www.w3.org/1999/xlink">
<g id="Canvas" fill="none">
<g id="Group">
<g id="Vector">
<path d="M 125.5 74.2C 125.5 76.5 123.6 78.4 121.3 78.4L 4.2 78.4C 1.9 78.4 4.88281e-05 76.5 4.88281e-05 74.2L 4.88281e-05 4.19999C 4.88281e-05 1.89999 1.9 1.2207e-05 4.2 1.2207e-05L 121.3 1.2207e-05C 123.6 1.2207e-05 125.5 1.89999 125.5 4.19999L 125.5 74.2Z" transform="translate(0 0.327148)" fill="#A2A2A2"/>
</g>
<g id="Vector_2">
<path d="M 4.88281e-05 33.6L 86.8 33.6C 89.1 33.6 91 31.7 91 29.4L 91 0C 82.7 5.4 51.3 23.6 4.88281e-05 33.6Z" transform="translate(34.5 45.127)" fill="#B7B7B7"/>
</g>
<g id="Group_2">
<g id="Vector_3">
<path d="M 6.29998 -1.2207e-05C 2.79998 -1.2207e-05 4.88281e-05 2.69999 4.88281e-05 5.99999C 4.88281e-05 9.49999 2.69998 12.2 6.29998 12.2C 9.79998 12.2 12.5 9.49999 12.5 6.09999C 12.6 2.69999 9.79998 -1.2207e-05 6.29998 -1.2207e-05Z" transform="translate(58 33.4268)" fill="#B7B7B7"/>
</g>
<g id="Vector_4">
<path d="M 3.39998 0L -4.88281e-05 0L -4.88281e-05 11.7L 3.3 11.7C 5.1 11.7 6.39995 11.3 7.49995 10.3C 8.79995 9.19999 9.60005 7.49999 9.60005 5.79999C 9.70005 2.49999 7.09998 0 3.39998 0ZM 6.10005 8.89999C 5.40005 9.59999 4.39995 9.79999 2.99995 9.79999L 2.39998 9.79999L 2.39998 2L 2.99995 2C 4.49995 2 5.40005 2.29999 6.10005 2.89999C 6.90005 3.59999 7.39998 4.69999 7.39998 5.79999C 7.29998 6.99999 6.80005 8.19999 6.10005 8.89999Z" transform="translate(25.3999 33.627)" fill="white"/>
</g>
<g id="Vector_5">
<path d="M 2.29995 0L 2.44141e-05 0L 2.44141e-05 11.7L 2.29995 11.7L 2.29995 0Z" transform="translate(36.1 33.627)" fill="white"/>
</g>
<g id="Vector_6">
<path d="M 4.90005 4.8C 3.50005 4.3 3.1 4 3.1 3.3C 3.1 2.6 3.79995 2.00001 4.79995 2.00001C 5.49995 2.00001 6 2.30001 6.6 2.90001L 7.79995 1.3C 6.79995 0.4 5.59995 1.2207e-05 4.29995 1.2207e-05C 2.19995 1.2207e-05 0.6 1.40001 0.6 3.40001C 0.6 5.00001 1.30002 5.79999 3.50002 6.59999C 4.40002 6.89999 4.9 7.1 5.1 7.3C 5.6 7.6 5.79995 8.00001 5.79995 8.50001C 5.79995 9.50001 5.00002 10.2 4.00002 10.2C 2.90002 10.2 2.00002 9.69999 1.50002 8.59999L 2.44141e-05 10C 1.10002 11.5 2.3 12.2 4.1 12.2C 6.5 12.2 8.1 10.6 8.1 8.3C 8.3 6.6 7.50005 5.8 4.90005 4.8Z" transform="translate(39.1 33.3271)" fill="white"/>
</g>
<g id="Vector_7">
<path d="M 2.44141e-05 6.09999C 2.44141e-05 9.59999 2.69998 12.2 6.19998 12.2C 7.19998 12.2 8 12 9.1 11.5L 9.1 8.80001C 8.2 9.70001 7.39995 10.1 6.29995 10.1C 3.99995 10.1 2.40005 8.39999 2.40005 6.09999C 2.40005 3.89999 4.09998 2.09999 6.19998 2.09999C 7.29998 2.09999 8.1 2.50001 9.1 3.40001L 9.1 0.7C 8.1 0.2 7.29995 -1.2207e-05 6.29995 -1.2207e-05C 2.79995 -1.2207e-05 2.44141e-05 2.69999 2.44141e-05 6.09999Z" transform="translate(48.1 33.4268)" fill="white"/>
</g>
<g id="Vector_8">
<path d="M 5.6 7.89999L 2.50002 0L 2.44141e-05 0L 5.00002 12.1L 6.19998 12.1L 11.3 0L 8.79995 0L 5.6 7.89999Z" transform="translate(70.1 33.627)" fill="white"/>
</g>
<g id="Vector_9">
<path d="M -4.88281e-05 11.8L 6.49995 11.8L 6.49995 9.79999L 2.3 9.79999L 2.3 6.60001L 6.39998 6.60001L 6.39998 4.60001L 2.3 4.60001L 2.3 2L 6.49995 2L 6.49995 0L -4.88281e-05 0L -4.88281e-05 11.8Z" transform="translate(82.3999 33.627)" fill="white"/>
</g>
<g id="Vector_10">
<path d="M 7.60005 3.5C 7.60005 1.3 6.09998 0 3.39998 0L -4.88281e-05 0L -4.88281e-05 11.7L 2.3 11.7L 2.3 7L 2.60005 7L 5.8 11.7L 8.60005 11.7L 4.89998 6.79999C 6.59998 6.49999 7.60005 5.3 7.60005 3.5ZM 2.99995 5.39999L 2.3 5.39999L 2.3 1.79999L 2.99995 1.79999C 4.39995 1.79999 5.20002 2.4 5.20002 3.5C 5.20002 4.8 4.49995 5.39999 2.99995 5.39999Z" transform="translate(90.3999 33.627)" fill="white"/>
</g>
<g id="Vector_11">
<path d="M 0.700024 0.299994C 0.700024 0.0999939 0.6 6.10352e-06 0.3 6.10352e-06L -4.88281e-05 6.10352e-06L -4.88281e-05 1.00001L 0.200024 1.00001L 0.200024 0.600012L 0.499951 1.00001L 0.8 1.00001L 0.499951 0.600012C 0.599951 0.600012 0.700024 0.499994 0.700024 0.299994ZM 0.3 0.500006L 0.3 0.199988C 0.4 0.199988 0.499951 0.199994 0.499951 0.299994C 0.399951 0.399994 0.4 0.500006 0.3 0.500006Z" transform="translate(98.8999 34.2275)" fill="white"/>
</g>
<g id="Vector_12">
<path d="M 0.899976 1.2207e-05C 0.399976 1.2207e-05 -4.88281e-05 0.400006 -4.88281e-05 0.900006C -4.88281e-05 1.40001 0.399976 1.8 0.899976 1.8C 1.39998 1.8 1.8 1.40001 1.8 0.900006C 1.7 0.400006 1.29998 1.2207e-05 0.899976 1.2207e-05ZM 0.899976 1.69999C 0.499976 1.69999 0.200024 1.40001 0.200024 1.00001C 0.200024 0.600012 0.499976 0.3 0.899976 0.3C 1.29998 0.3 1.60005 0.600012 1.60005 1.00001C 1.60005 1.30001 1.19998 1.69999 0.899976 1.69999Z" transform="translate(98.3999 33.8271)" fill="white"/>
</g>
</g>
</g>
</g>
</svg>

