<svg width="126" height="80" viewBox="0 0 126 80" version="1.1" xmlns="http://www.w3.org/2000/svg" xmlns:xlink="http://www.w3.org/1999/xlink">
<g id="Canvas" fill="none">
<g id="MasterCard">
<g id="Vector">
<path d="M 125.5 74.2C 125.5 76.5 123.6 78.4 121.3 78.4L 4.2 78.4C 1.9 78.4 4.88281e-05 76.5 4.88281e-05 74.2L 4.88281e-05 4.19999C 4.88281e-05 1.89999 1.9 -3.05176e-06 4.2 -3.05176e-06L 121.3 -3.05176e-06C 123.6 -3.05176e-06 125.5 1.89999 125.5 4.19999L 125.5 74.2Z" transform="translate(0.500061 0.672852)" fill="black"/>
</g>
<g id="MasterCard_2">
<g id="&#60;Compound Path&#62;">
<path d="M 8.93943 7.86419L 8.93943 4.34291C 8.96655 4.04836 8.929 3.75148 8.82935 3.47268C 8.7297 3.19388 8.57032 2.93979 8.36218 2.72787C 8.15403 2.51596 7.90206 2.35124 7.62358 2.24506C 7.3451 2.13888 7.04673 2.09374 6.74898 2.11277C 6.35581 2.09727 5.96508 2.18062 5.61315 2.35506C 5.26121 2.5295 4.95951 2.78936 4.73612 3.11047C 4.54224 2.78863 4.26322 2.52553 3.92928 2.34966C 3.59534 2.1738 3.21922 2.09187 2.84167 2.11277C 2.5093 2.0984 2.17851 2.16593 1.8789 2.30931C 1.5793 2.4527 1.32022 2.66746 1.12483 2.9344L 1.12483 2.23015L -4.51672e-07 2.23015L -4.51672e-07 7.86419L 1.12483 7.86419L 1.12483 4.63635C 1.10144 4.44316 1.1216 4.24724 1.18386 4.06271C 1.24612 3.87818 1.34892 3.70966 1.48485 3.56929C 1.62078 3.42893 1.78645 3.32022 1.96989 3.25103C 2.15334 3.18183 2.34999 3.15387 2.54567 3.16915C 3.37449 3.16915 3.8481 3.69734 3.8481 4.63635L 3.8481 7.86419L 4.97293 7.86419L 4.97293 4.63635C 4.94954 4.44316 4.9697 4.24724 5.03196 4.06271C 5.09422 3.87818 5.19702 3.70966 5.33295 3.56929C 5.46888 3.42893 5.63455 3.32022 5.81799 3.25103C 6.00144 3.18183 6.19809 3.15387 6.39376 3.16915C 7.22259 3.16915 7.6962 3.69734 7.6962 4.63635L 7.6962 7.86419L 8.93943 7.86419ZM 27.4103 2.28883L 25.3383 2.28883L 25.3383 0.586879L 24.2134 0.586879L 24.2134 2.28883L 23.0294 2.28883L 23.0294 3.28653L 24.2134 3.28653L 24.2134 5.92749C 24.2134 7.21862 24.687 7.98157 26.1079 7.98157C 26.6471 7.971 27.1755 7.82997 27.6471 7.57075L 27.2919 6.57306C 26.9728 6.77089 26.6026 6.87281 26.2263 6.8665C 26.1019 6.87667 25.9767 6.85884 25.8602 6.81436C 25.7437 6.76987 25.6389 6.69987 25.5535 6.60959C 25.4681 6.51931 25.4044 6.41107 25.3672 6.29296C 25.3299 6.17485 25.32 6.04991 25.3383 5.92749L 25.3383 3.22784L 27.4103 3.22784L 27.4103 2.28883L 27.4103 2.28883ZM 37.9482 2.11277C 37.6419 2.1065 37.3392 2.17887 37.0695 2.32284C 36.7998 2.46681 36.5723 2.67748 36.4089 2.9344L 36.4089 2.23015L 35.2841 2.23015L 35.2841 7.86419L 36.4089 7.86419L 36.4089 4.69504C 36.4089 3.75603 36.8826 3.16915 37.6522 3.16915C 37.9124 3.17947 38.1705 3.21884 38.4218 3.28653L 38.777 2.23015C 38.5056 2.16236 38.2278 2.12301 37.9482 2.11277L 37.9482 2.11277ZM 22.023 2.69965C 21.3299 2.2795 20.5256 2.07506 19.7141 2.11277C 18.2933 2.11277 17.4053 2.75833 17.4053 3.87341C 17.4053 4.81241 18.0565 5.34061 19.2997 5.51667L 19.8917 5.57536C 20.5429 5.69274 20.9573 5.92749 20.9573 6.22093C 20.9573 6.63174 20.4837 6.92518 19.5957 6.92518C 18.9166 6.93921 18.2515 6.73315 17.7013 6.3383L 17.1092 7.21862C 17.8285 7.69005 18.6744 7.93549 19.5365 7.92288C 21.1942 7.92288 22.0822 7.15994 22.0822 6.10355C 22.0822 5.04717 21.3718 4.63635 20.1285 4.46029L 19.5365 4.4016C 19.0037 4.34291 18.5301 4.16685 18.5301 3.81472C 18.5301 3.46259 19.0037 3.11047 19.6549 3.11047C 20.2743 3.13725 20.8804 3.29746 21.431 3.57997L 22.023 2.69965ZM 39.2506 5.04717C 39.2264 5.43877 39.2864 5.83101 39.4266 6.19791C 39.5668 6.56481 39.784 6.898 40.0638 7.17543C 40.3437 7.45285 40.6798 7.66818 41.0499 7.80715C 41.42 7.94613 41.8157 8.00558 42.2107 7.98157C 42.939 8.01952 43.6557 7.78964 44.2235 7.336L 43.6315 6.45568C 43.2133 6.79378 42.6911 6.98013 42.1515 6.98387C 41.6749 6.94649 41.2301 6.73243 40.9056 6.38435C 40.5812 6.03628 40.401 5.57977 40.401 5.10586C 40.401 4.63194 40.5812 4.17543 40.9056 3.82736C 41.2301 3.47929 41.6749 3.26522 42.1515 3.22784C 42.6911 3.23158 43.2133 3.41793 43.6315 3.75603L 44.2235 2.87571C 43.6557 2.42207 42.939 2.19219 42.2107 2.23015C 41.8209 2.18377 41.4257 2.22375 41.0534 2.34718C 40.6811 2.47062 40.3411 2.67445 40.0579 2.94395C 39.7747 3.21344 39.5554 3.5419 39.4158 3.90561C 39.2762 4.26932 39.2198 4.65922 39.2506 5.04717L 39.2506 5.04717ZM 31.2584 2.11277C 29.6008 2.11277 28.4759 3.28653 28.4759 5.04717C 28.4506 5.43402 28.5078 5.82183 28.6438 6.1853C 28.7798 6.54877 28.9916 6.87974 29.2653 7.15662C 29.539 7.4335 29.8685 7.65008 30.2323 7.79222C 30.5962 7.93436 30.9861 7.99888 31.3768 7.98157C 32.2122 7.99877 33.0278 7.72924 33.6857 7.21862L 33.0937 6.39699C 32.6181 6.76233 32.0374 6.96791 31.436 6.98387C 31.0158 6.99974 30.605 6.85722 30.2865 6.585C 29.968 6.31279 29.7653 5.93107 29.7192 5.51667L 33.9225 5.51667L 33.9225 5.04717C 33.9225 3.28653 32.8569 2.11277 31.2584 2.11277ZM 31.2584 3.16915C 31.4501 3.16039 31.6416 3.19039 31.8213 3.25731C 32.0009 3.32424 32.165 3.4267 32.3034 3.55846C 32.4419 3.69022 32.5518 3.84852 32.6266 4.02373C 32.7014 4.19895 32.7395 4.38741 32.7384 4.57767L 29.66 4.57767C 29.6859 4.18164 29.8682 3.8117 30.1674 3.54804C 30.4667 3.28438 30.8586 3.14824 31.2584 3.16915L 31.2584 3.16915ZM 15.9252 5.04717L 15.9252 2.23015L 14.8004 2.23015L 14.8004 2.9344C 14.5837 2.66117 14.3038 2.44381 13.9843 2.30077C 13.6648 2.15773 13.3152 2.09323 12.9651 2.11277C 12.1801 2.11277 11.4272 2.42193 10.872 2.97223C 10.3169 3.52254 10.0051 4.26891 10.0051 5.04717C 10.0051 5.82542 10.3169 6.5718 10.872 7.1221C 11.4272 7.67241 12.1801 7.98157 12.9651 7.98157C 13.3152 8.0011 13.6648 7.93661 13.9843 7.79357C 14.3038 7.65053 14.5837 7.43317 14.8004 7.15994L 14.8004 7.86419L 15.9252 7.86419L 15.9252 5.04717ZM 11.3075 5.04717C 11.3306 4.70488 11.454 4.37672 11.6626 4.10303C 11.8713 3.82934 12.156 3.62204 12.4819 3.50659C 12.8078 3.39115 13.1606 3.3726 13.497 3.45321C 13.8333 3.53383 14.1386 3.7101 14.3753 3.96037C 14.612 4.21064 14.7697 4.52401 14.8292 4.86196C 14.8887 5.19991 14.8473 5.54772 14.7101 5.86266C 14.5728 6.17759 14.3458 6.44593 14.0568 6.63469C 13.7679 6.82345 13.4296 6.92442 13.0835 6.92518C 12.8385 6.9311 12.5949 6.88563 12.3687 6.79174C 12.1426 6.69785 11.9391 6.55766 11.7714 6.38036C 11.6037 6.20306 11.4757 5.99264 11.3958 5.76289C 11.3158 5.53314 11.2857 5.28924 11.3075 5.04717L 11.3075 5.04717ZM 55.0574 2.11277C 54.7512 2.1065 54.4485 2.17887 54.1788 2.32284C 53.9091 2.46681 53.6815 2.67748 53.5182 2.9344L 53.5182 2.23015L 52.3934 2.23015L 52.3934 7.86419L 53.5182 7.86419L 53.5182 4.69504C 53.5182 3.75603 53.9918 3.16915 54.7614 3.16915C 55.0216 3.17947 55.2798 3.21884 55.531 3.28653L 55.8862 2.23015C 55.6149 2.16236 55.3371 2.12301 55.0574 2.11277L 55.0574 2.11277ZM 50.6765 5.04717L 50.6765 2.23015L 49.5517 2.23015L 49.5517 2.9344C 49.335 2.66117 49.0551 2.44381 48.7356 2.30077C 48.4161 2.15773 48.0665 2.09323 47.7164 2.11277C 46.9314 2.11277 46.1785 2.42193 45.6233 2.97223C 45.0682 3.52254 44.7564 4.26891 44.7564 5.04717C 44.7564 5.82542 45.0682 6.5718 45.6233 7.1221C 46.1785 7.67241 46.9314 7.98157 47.7164 7.98157C 48.0665 8.0011 48.4161 7.93661 48.7356 7.79357C 49.0551 7.65053 49.335 7.43317 49.5517 7.15994L 49.5517 7.86419L 50.6765 7.86419L 50.6765 5.04717ZM 46.118 5.04717C 46.1411 4.70488 46.2645 4.37672 46.4732 4.10303C 46.6818 3.82934 46.9665 3.62204 47.2924 3.50659C 47.6183 3.39115 47.9711 3.3726 48.3075 3.45321C 48.6438 3.53383 48.9491 3.7101 49.1858 3.96037C 49.4225 4.21064 49.5802 4.52401 49.6397 4.86196C 49.6992 5.19991 49.6578 5.54772 49.5206 5.86266C 49.3833 6.17759 49.1563 6.44593 48.8673 6.63469C 48.5784 6.82345 48.2401 6.92442 47.894 6.92518C 46.7692 6.98387 46.118 6.10355 46.118 5.04717ZM 62.1616 5.04717L 62.1616 -8.95508e-07L 61.0368 -8.95508e-07L 61.0368 2.9344C 60.8201 2.66117 60.5402 2.44381 60.2207 2.30077C 59.9012 2.15773 59.5516 2.09323 59.2015 2.11277C 58.4165 2.11277 57.6636 2.42193 57.1084 2.97223C 56.5533 3.52254 56.2415 4.26891 56.2415 5.04717C 56.2415 5.82542 56.5533 6.5718 57.1084 7.1221C 57.6636 7.67241 58.4165 7.98157 59.2015 7.98157C 59.5516 8.0011 59.9012 7.93661 60.2207 7.79357C 60.5402 7.65053 60.8201 7.43317 61.0368 7.15994L 61.0368 7.86419L 62.1616 7.86419L 62.1616 5.04717ZM 57.5439 5.04717C 57.567 4.70488 57.6904 4.37672 57.8991 4.10303C 58.1077 3.82934 58.3924 3.62204 58.7183 3.50659C 59.0442 3.39115 59.397 3.3726 59.7334 3.45321C 60.0697 3.53383 60.375 3.7101 60.6117 3.96037C 60.8484 4.21064 61.0061 4.52401 61.0656 4.86196C 61.1251 5.19991 61.0837 5.54772 60.9465 5.86266C 60.8092 6.17759 60.5822 6.44593 60.2932 6.63469C 60.0043 6.82345 59.666 6.92442 59.3199 6.92518C 59.0749 6.9311 58.8313 6.88563 58.6051 6.79174C 58.379 6.69785 58.1755 6.55766 58.0078 6.38036C 57.8401 6.20306 57.7121 5.99264 57.6322 5.76289C 57.5522 5.53314 57.5221 5.28924 57.5439 5.04717L 57.5439 5.04717Z" transform="translate(32.5231 58.0137)" fill="white"/>
</g>
<g id="&#60;Group&#62;">
<g id="Vector_2">
<path d="M 20.5429 0L 0 0L 0 33.2174L 20.5429 33.2174L 20.5429 0Z" transform="translate(53.2436 17.5195)" fill="#FF5F00"/>
</g>
<g id="&#60;Path&#62;">
<path d="M 26.3749 21.1277C 26.3758 17.9321 27.1058 14.7782 28.5104 11.902C 29.9149 9.02577 31.9576 6.50177 34.4855 4.51896C 31.8136 2.43642 28.6781 1.01755 25.3405 0.380764C 22.003 -0.256026 18.5602 -0.0922735 15.2994 0.858358C 12.0387 1.80899 9.05456 3.51893 6.5961 5.84548C 4.13764 8.17204 2.27613 11.0477 1.16691 14.2326C 0.0576919 17.4175 -0.267065 20.8191 0.219739 24.1537C 0.706543 27.4883 1.99079 30.6592 3.96531 33.4016C 5.93983 36.1441 8.54736 38.3786 11.5703 39.9188C 14.5933 41.459 17.9439 42.2601 21.3428 42.2553C 26.1119 42.2587 30.7427 40.6664 34.4855 37.7364C 31.9576 35.7535 29.9149 33.2296 28.5104 30.3533C 27.1058 27.4771 26.3758 24.3232 26.3749 21.1277L 26.3749 21.1277Z" transform="translate(29 13)" fill="#EB001B"/>
</g>
<g id="Vector_3">
<path d="M 34.4553 21.1042C 34.4508 25.0635 33.3242 28.942 31.2038 32.2973C 29.0834 35.6526 26.0545 38.3497 22.4627 40.0812C 18.8708 41.8126 14.8604 42.5086 10.8888 42.0899C 6.91718 41.6711 3.14418 40.1545 -1.80669e-06 37.7129C 2.5285 35.7306 4.57162 33.2068 5.97621 30.3304C 7.38081 27.454 8.11045 24.2998 8.11045 21.1042C 8.11045 17.9085 7.38081 14.7543 5.97621 11.878C 4.57162 9.00161 2.5285 6.47773 -1.80669e-06 4.49548C 3.14418 2.05387 6.91718 0.537229 10.8888 0.118497C 14.8604 -0.300236 18.8708 0.395787 22.4627 2.1272C 26.0545 3.85862 29.0834 6.55575 31.2038 9.91106C 33.3242 13.2664 34.4508 17.1448 34.4553 21.1042L 34.4553 21.1042Z" transform="translate(63.5447 13.0234)" fill="#F79E1B"/>
</g>
</g>
</g>
</g>
</g>
</svg>

