<svg width="126" height="79" viewBox="0 0 126 79" version="1.1" xmlns="http://www.w3.org/2000/svg" xmlns:xlink="http://www.w3.org/1999/xlink">
<g id="Canvas" fill="none">
<g id="Group">
<g id="Vector">
<path d="M 125.5 74.2C 125.5 76.5 123.6 78.4 121.3 78.4L 4.20001 78.4C 1.90001 78.4 0 76.5 0 74.2L 0 4.19999C 0 1.89999 1.90001 -3.05176e-06 4.20001 -3.05176e-06L 121.3 -3.05176e-06C 123.6 -3.05176e-06 125.5 1.89999 125.5 4.19999L 125.5 74.2Z" fill="#A2A2A2"/>
</g>
<g id="Group_2">
<g id="Vector_2">
<path d="M 6.09999 23.5L 1.2207e-05 23.5L 3.8 6.10352e-06L 9.89998 6.10352e-06L 6.09999 23.5Z" transform="translate(51.9 27.4004)" fill="white"/>
</g>
<g id="Vector_3">
<path d="M 21.3 6.10352e-06L 15.5 16.2L 14.8 12.7L 12.7 2.1C 12.7 2.1 12.5 6.10352e-06 9.8 6.10352e-06L 0.0999878 6.10352e-06L 1.2207e-05 0.4C 1.2207e-05 0.4 2.99998 0.999997 6.39998 3.1L 11.7 23.5L 18.1 23.5L 27.9 6.10352e-06L 21.3 6.10352e-06Z" transform="translate(25.4 27.4004)" fill="white"/>
</g>
<g id="Vector_4">
<path d="M 16.1 23.5L 21.7 23.5L 16.8 6.10352e-06L 11.9 6.10352e-06C 9.6 6.10352e-06 9.10001 1.79999 9.10001 1.79999L -2.44141e-05 23.6L 6.4 23.6L 7.69999 20.1L 15.5 20.1L 16.1 23.5ZM 9.4 15.2L 12.6 6.4L 14.4 15.2L 9.4 15.2Z" transform="translate(78.8 27.4004)" fill="white"/>
</g>
<g id="Vector_5">
<path d="M 17.4 6.1L 18.3 1.00001C 18.3 1.00001 15.6 6.10352e-06 12.8 6.10352e-06C 9.80002 6.10352e-06 2.49998 1.29999 2.49998 7.79999C 2.49998 13.9 11 14 11 17.1C 11 20.3 3.4 19.7 0.9 17.7L -2.44141e-05 23C -2.44141e-05 23 2.7 24.3 6.9 24.3C 11.1 24.3 17.4 22.1 17.4 16.2C 17.4 10.1 8.80002 9.5 8.80002 6.9C 8.80002 4.4 14.8 4.7 17.4 6.1Z" transform="translate(61.8 26.9004)" fill="white"/>
</g>
</g>
<g id="Vector_6">
<path d="M 14.8 12.7L 12.7 2.1C 12.7 2.1 12.5 6.10352e-06 9.8 6.10352e-06L 0.0999878 6.10352e-06L 1.2207e-05 0.4C 1.2207e-05 0.4 4.59999 1.40001 9.09999 5.00001C 13.4 8.40001 14.8 12.7 14.8 12.7Z" transform="translate(25.4 27.4004)" fill="#BDBDBD"/>
</g>
</g>
</g>
</svg>

