<svg id="Layer_1" data-name="Layer 1" xmlns="http://www.w3.org/2000/svg" viewBox="0 0 144.33 52.88" fill="white">
  <defs>
    <style>.cls-1{fill:#0199cc;}.cls-2{fill:#666766;}</style>
  </defs>
  <title>logo-solo</title>
  <path d="M48.24,10.67A26.38,26.38,0,0,0,31.63,3l0,0L17.88,16.75a17.23,17.23,0,1,0,11.66-4.56c-0.38,
        0-.76,0-1.14,0l4.76-4.76a22.23,22.23,0,1,1-19.48,6.31L23.88,3.52A26.48,26.48,0,1,0,48.24,10.67Zm-18.7,5.76a13,13,
        0,1,1-9.23,3.86h0l0.53-.53A12.94,12.94,0,0,1,29.55,16.44Z"
        transform="translate(-3.03 -3)"/>

  <path d="M92.25,15.88l-2.35,5a20.08,20.08,0,0,0-9.84-3.12c-3.31,0-5.47,1.25-5.47,3.5,0,7.34,18.15,
          3.41,18.1,15.5,0,6-5.28,9.7-12.67,9.7a20.67,20.67,0,0,1-13.73-5.33l2.45-4.9a17.72,17.72,0,0,0,11.38,4.9c3.94,0,
          6.29-1.49,6.29-4.08,0-7.49-18.15-3.31-18.15-15.26,0-5.76,4.94-9.36,12.24-9.36A21.89,21.89,0,0,1,92.25,15.88Z"
        transform="translate(-3.03 -3)"/>

  <path d="M102.19,46.26V12.66h5.66v33.6h-5.66Z" transform="translate(-3.03 -3)"/>

  <path d="M147.36,46.26h-6.77l-9.07-12.67-9,12.67h-6.62L128.11,29,116.73,12.66h6.58l8.21,11.67,8.26-11.66h6.62L135.12,28.79Z"
        transform="translate(-3.03 -3)"/>
</svg>
