<?xml version="1.0" encoding="UTF-8"?>
<svg width="42px" height="42px" viewBox="0 0 42 42" version="1.1" xmlns="http://www.w3.org/2000/svg" xmlns:xlink="http://www.w3.org/1999/xlink">
    <!-- Generator: Sketch 42 (36781) - http://www.bohemiancoding.com/sketch -->
    <title>ic_assessment</title>
    <desc>Created with Sketch.</desc>
    <defs></defs>
    <g id="Page-1" stroke="none" stroke-width="1" fill="none" fill-rule="evenodd">
        <g id="Search-V3-Boxes-Copy-2" transform="translate(-387.000000, -617.000000)">
            <g id="datatable" transform="translate(322.000000, 140.000000)">
                <g id="results" transform="translate(22.000000, 79.000000)">
                    <g id="Search-Result-1-Copy-2" transform="translate(0.000000, 368.000000)">
                        <g id="ic_assessment" transform="translate(37.000000, 24.000000)">
                            <g id="Icon-24px">
                                <path d="M42.75,6.75 L11.25,6.75 C8.775,6.75 6.75,8.775 6.75,11.25 L6.75,42.75 C6.75,45.225 8.775,47.25 11.25,47.25 L42.75,47.25 C45.225,47.25 47.25,45.225 47.25,42.75 L47.25,11.25 C47.25,8.775 45.225,6.75 42.75,6.75 L42.75,6.75 Z M20.25,38.25 L15.75,38.25 L15.75,22.5 L20.25,22.5 L20.25,38.25 L20.25,38.25 Z M29.25,38.25 L24.75,38.25 L24.75,15.75 L29.25,15.75 L29.25,38.25 L29.25,38.25 Z M38.25,38.25 L33.75,38.25 L33.75,29.25 L38.25,29.25 L38.25,38.25 L38.25,38.25 Z" id="Shape" fill="#757575"></path>
                                <polygon id="Shape" points="0 0 54 0 54 54 0 54"></polygon>
                            </g>
                        </g>
                    </g>
                </g>
            </g>
        </g>
    </g>
</svg>