<?xml version="1.0" encoding="UTF-8"?>
<svg width="14px" height="14px" viewBox="0 0 14 14" version="1.1" xmlns="http://www.w3.org/2000/svg" xmlns:xlink="http://www.w3.org/1999/xlink">
    <!-- Generator: Sketch 42 (36781) - http://www.bohemiancoding.com/sketch -->
    <title>ic_av_timer</title>
    <desc>Created with Sketch.</desc>
    <defs></defs>
    <g id="Page-1" stroke="none" stroke-width="1" fill="none" fill-rule="evenodd">
        <g id="Search-V3-Boxes-Copy-2" transform="translate(-554.000000, -464.000000)">
            <g id="datatable" transform="translate(322.000000, 140.000000)">
                <g id="results" transform="translate(22.000000, 79.000000)">
                    <g id="Search-Result-1-Copy" transform="translate(0.000000, 184.000000)">
                        <g id="Group-11" transform="translate(127.000000, 23.000000)">
                            <g id="subname" transform="translate(1.091850, 34.000000)">
                                <g id="Group-7">
                                    <g id="SUB-NAME">
                                        <g id="ic_av_timer" transform="translate(80.000000, 2.000000)">
                                            <g id="Icon-24px">
                                                <polygon id="Shape" points="0 0 18.0931436 0 18.0931436 18 0 18"></polygon>
                                                <path d="M8.29269082,12.75 C8.29269082,13.1625 8.63193726,13.5 9.0465718,13.5 C9.46120634,13.5 9.80045278,13.1625 9.80045278,12.75 C9.80045278,12.3375 9.46120634,12 9.0465718,12 C8.63193726,12 8.29269082,12.3375 8.29269082,12.75 L8.29269082,12.75 Z M8.29269082,2.25 L8.29269082,5.25 L9.80045278,5.25 L9.80045278,3.81 C12.3561093,4.1775 14.3237387,6.3525 14.3237387,9 C14.3237387,11.9025 11.9640912,14.25 9.0465718,14.25 C6.12905239,14.25 3.76940492,11.9025 3.76940492,9 C3.76940492,7.74 4.2141947,6.585 4.96053687,5.685 L9.0465718,9.75 L10.109544,8.6925 L4.9831533,3.5925 L4.9831533,3.6075 C3.33215395,4.8375 2.26164295,6.7875 2.26164295,9 C2.26164295,12.7275 5.2922445,15.75 9.0465718,15.75 C12.7933603,15.75 15.8315006,12.7275 15.8315006,9 C15.8315006,5.2725 12.7933603,2.25 9.0465718,2.25 L8.29269082,2.25 L8.29269082,2.25 Z M13.5698577,9 C13.5698577,8.5875 13.2306113,8.25 12.8159767,8.25 C12.4013422,8.25 12.0620957,8.5875 12.0620957,9 C12.0620957,9.4125 12.4013422,9.75 12.8159767,9.75 C13.2306113,9.75 13.5698577,9.4125 13.5698577,9 L13.5698577,9 Z M4.5232859,9 C4.5232859,9.4125 4.86253234,9.75 5.27716688,9.75 C5.69180142,9.75 6.03104787,9.4125 6.03104787,9 C6.03104787,8.5875 5.69180142,8.25 5.27716688,8.25 C4.86253234,8.25 4.5232859,8.5875 4.5232859,9 L4.5232859,9 Z" id="Shape" fill="#B4B4B4"></path>
                                            </g>
                                        </g>
                                    </g>
                                </g>
                            </g>
                        </g>
                    </g>
                </g>
            </g>
        </g>
    </g>
</svg>