<?xml version="1.0" encoding="UTF-8"?>
<svg width="46px" height="44px" viewBox="0 0 46 44" version="1.1" xmlns="http://www.w3.org/2000/svg" xmlns:xlink="http://www.w3.org/1999/xlink">
    <!-- Generator: Sketch 42 (36781) - http://www.bohemiancoding.com/sketch -->
    <title>ic_redeem</title>
    <desc>Created with Sketch.</desc>
    <defs></defs>
    <g id="Page-1" stroke="none" stroke-width="1" fill="none" fill-rule="evenodd">
        <g id="Search-V3-Boxes-Copy-2" transform="translate(-386.000000, -432.000000)">
            <g id="datatable" transform="translate(322.000000, 140.000000)">
                <g id="results" transform="translate(22.000000, 79.000000)">
                    <g id="ic_redeem" transform="translate(38.000000, 209.000000)">
                        <g id="Icon-24px">
                            <path d="M45,13.5 L40.095,13.5 C40.3425,12.8025 40.5,12.0375 40.5,11.25 C40.5,7.515 37.485,4.5 33.75,4.5 C31.3875,4.5 29.34,5.715 28.125,7.5375 L27,9.045 L25.875,7.515 C24.66,5.715 22.6125,4.5 20.25,4.5 C16.515,4.5 13.5,7.515 13.5,11.25 C13.5,12.0375 13.6575,12.8025 13.905,13.5 L9,13.5 C6.5025,13.5 4.5225,15.5025 4.5225,18 L4.5,42.75 C4.5,45.2475 6.5025,47.25 9,47.25 L45,47.25 C47.4975,47.25 49.5,45.2475 49.5,42.75 L49.5,18 C49.5,15.5025 47.4975,13.5 45,13.5 L45,13.5 Z M33.75,9 C34.9875,9 36,10.0125 36,11.25 C36,12.4875 34.9875,13.5 33.75,13.5 C32.5125,13.5 31.5,12.4875 31.5,11.25 C31.5,10.0125 32.5125,9 33.75,9 L33.75,9 Z M20.25,9 C21.4875,9 22.5,10.0125 22.5,11.25 C22.5,12.4875 21.4875,13.5 20.25,13.5 C19.0125,13.5 18,12.4875 18,11.25 C18,10.0125 19.0125,9 20.25,9 Z M45,42.75 L9,42.75 L9,38.25 L45,38.25 L45,42.75 Z M45,31.5 L9,31.5 L9,18 L20.43,18 L15.75,24.3675 L19.395,27 L24.75,19.71 L27,16.65 L29.25,19.71 L34.605,27 L38.25,24.3675 L33.57,18 L45,18 L45,31.5 L45,31.5 Z" id="Shape" fill="#757575"></path>
                            <rect id="Rectangle-6" fill="#FFFFFF" x="9" y="30" width="36" height="10"></rect>
                            <polygon id="Shape" points="0 0 54 0 54 54 0 54"></polygon>
                        </g>
                    </g>
                </g>
            </g>
        </g>
    </g>
</svg>